<svg width="20" height="21" viewBox="0 0 20 21" fill="none" xmlns="http://www.w3.org/2000/svg">
<path d="M12.8257 12.633C11.4257 11.9163 9.60904 11.333 7.5007 11.333C5.39237 11.333 3.57571 11.9163 2.17571 12.633C1.76909 12.8424 1.42846 13.1604 1.19162 13.5517C0.954787 13.943 0.831013 14.3923 0.834039 14.8497V17.1663H14.1674V14.8497C14.1674 13.9163 13.659 13.058 12.8257 12.633ZM7.5007 10.4997C9.34237 10.4997 10.834 9.00801 10.834 7.16634C10.834 5.32467 9.34237 3.83301 7.5007 3.83301C5.65904 3.83301 4.16737 5.32467 4.16737 7.16634C4.16737 9.00801 5.65904 10.4997 7.5007 10.4997ZM16.6674 7.99967V5.49967H15.0007V7.99967H12.5007V9.66634H15.0007V12.1663H16.6674V9.66634H19.1674V7.99967H16.6674Z" fill="#0C3176"/>
</svg>
