<svg width="48" height="48" viewBox="0 0 48 48" fill="none" xmlns="http://www.w3.org/2000/svg">
<path d="M40.1235 37.3945C42.2777 34.8026 43.7759 31.7301 44.4915 28.4367C45.2071 25.1434 45.1189 21.7262 44.2345 18.4741C43.3501 15.222 41.6954 12.2308 39.4105 9.75349C37.1255 7.27617 34.2775 5.38561 31.1074 4.24176C27.9373 3.0979 24.5383 2.7344 21.1979 3.182C17.8576 3.6296 14.6742 4.87513 11.9171 6.81324C9.15993 8.75134 6.91012 11.325 5.35799 14.3165C3.80586 17.308 2.99706 20.6293 3.00001 23.9995C3.00114 28.8988 4.72763 33.6411 7.87651 37.3945L7.84651 37.42C7.95151 37.546 8.07151 37.654 8.17951 37.7785C8.31451 37.933 8.46001 38.0785 8.59951 38.2285C9.01951 38.6845 9.45151 39.1225 9.90451 39.5335C10.0425 39.6595 10.185 39.7765 10.3245 39.8965C10.8045 40.3105 11.298 40.7035 11.8095 41.0695C11.8755 41.1145 11.9355 41.173 12.0015 41.2195V41.2015C15.5147 43.6737 19.7057 45.0006 24.0015 45.0006C28.2974 45.0006 32.4884 43.6737 36.0015 41.2015V41.2195C36.0675 41.173 36.126 41.1145 36.1935 41.0695C36.7035 40.702 37.1985 40.3105 37.6785 39.8965C37.818 39.7765 37.9605 39.658 38.0985 39.5335C38.5515 39.121 38.9835 38.6845 39.4035 38.2285C39.543 38.0785 39.687 37.933 39.8235 37.7785C39.93 37.654 40.0515 37.546 40.1565 37.4185L40.1235 37.3945ZM24 11.9995C25.335 11.9995 26.6401 12.3954 27.7501 13.1371C28.8601 13.8788 29.7253 14.933 30.2362 16.1664C30.7471 17.3998 30.8808 18.757 30.6203 20.0663C30.3599 21.3757 29.717 22.5784 28.773 23.5224C27.829 24.4665 26.6262 25.1093 25.3169 25.3698C24.0075 25.6302 22.6503 25.4966 21.4169 24.9857C20.1835 24.4748 19.1293 23.6096 18.3876 22.4996C17.6459 21.3895 17.25 20.0845 17.25 18.7495C17.25 16.9593 17.9612 15.2424 19.227 13.9765C20.4929 12.7106 22.2098 11.9995 24 11.9995ZM12.0105 37.3945C12.0365 35.4249 12.8369 33.5448 14.2385 32.1609C15.6402 30.777 17.5303 30.0005 19.5 29.9995H28.5C30.4697 30.0005 32.3599 30.777 33.7615 32.1609C35.1631 33.5448 35.9635 35.4249 35.9895 37.3945C32.6998 40.359 28.4284 41.9996 24 41.9996C19.5716 41.9996 15.3002 40.359 12.0105 37.3945Z" fill="#87898C"/>
</svg>
