<svg width="20" height="21" viewBox="0 0 20 21" fill="none" xmlns="http://www.w3.org/2000/svg">
<path d="M11.172 10.4995L14.7554 6.9245C14.9123 6.76758 15.0004 6.55475 15.0004 6.33284C15.0004 6.11092 14.9123 5.89809 14.7554 5.74117C14.5984 5.58425 14.3856 5.49609 14.1637 5.49609C13.9418 5.49609 13.7289 5.58425 13.572 5.74117L9.99702 9.3245L6.42202 5.74117C6.2651 5.58425 6.05227 5.49609 5.83035 5.49609C5.60843 5.49609 5.39561 5.58425 5.23869 5.74117C5.08177 5.89809 4.99361 6.11092 4.99361 6.33284C4.99361 6.55475 5.08177 6.76758 5.23869 6.9245L8.82202 10.4995L5.23869 14.0745C5.16058 14.152 5.09858 14.2441 5.05628 14.3457C5.01397 14.4472 4.99219 14.5562 4.99219 14.6662C4.99219 14.7762 5.01397 14.8851 5.05628 14.9867C5.09858 15.0882 5.16058 15.1804 5.23869 15.2578C5.31616 15.3359 5.40832 15.3979 5.50987 15.4402C5.61142 15.4826 5.72034 15.5043 5.83035 15.5043C5.94036 15.5043 6.04928 15.4826 6.15083 15.4402C6.25238 15.3979 6.34455 15.3359 6.42202 15.2578L9.99702 11.6745L13.572 15.2578C13.6495 15.3359 13.7417 15.3979 13.8432 15.4402C13.9448 15.4826 14.0537 15.5043 14.1637 15.5043C14.2737 15.5043 14.3826 15.4826 14.4842 15.4402C14.5857 15.3979 14.6779 15.3359 14.7554 15.2578C14.8335 15.1804 14.8955 15.0882 14.9378 14.9867C14.9801 14.8851 15.0019 14.7762 15.0019 14.6662C15.0019 14.5562 14.9801 14.4472 14.9378 14.3457C14.8955 14.2441 14.8335 14.152 14.7554 14.0745L11.172 10.4995Z" fill="#3764AC"/>
</svg>
