<?xml version="1.0" encoding="utf-8"?>
<!-- Generator: Adobe Illustrator 26.0.0, SVG Export Plug-In . SVG Version: 6.00 Build 0)  -->
<svg version="1.1" id="圖層_1" xmlns="http://www.w3.org/2000/svg" xmlns:xlink="http://www.w3.org/1999/xlink" x="0px" y="0px"
	 viewBox="0 0 20 20" style="enable-background:new 0 0 20 20;" xml:space="preserve">
<style type="text/css">
	.st0{fill:#FFFFFF;}
</style>
<path class="st0" d="M10,7.5V5.4c0-0.2,0-0.3-0.1-0.5C9.8,4.8,9.6,4.7,9.5,4.6C9.3,4.6,9.2,4.6,9,4.6c-0.2,0-0.3,0.1-0.4,0.2L3.3,10
	l5.2,5.2c0.1,0.1,0.2,0.1,0.3,0.2c0.1,0,0.2,0.1,0.3,0.1c0.1,0,0.2,0,0.3-0.1c0.1,0,0.2-0.1,0.3-0.2c0.1-0.1,0.1-0.2,0.2-0.3
	c0-0.1,0.1-0.2,0.1-0.3v-2.1c2.3,0.1,4.8,0.5,6.7,3.3V15C16.7,11.1,13.8,8,10,7.5z"/>
</svg>
