<svg width="44" height="44" viewBox="0 0 44 44" fill="none" xmlns="http://www.w3.org/2000/svg">
<g clip-path="url(#clip0_7293_9608)">
<path d="M16.7188 35.4959V16.7936L43.9997 0V18.7023L16.7188 35.4959ZM20.2185 19.3291V28.6576L40.5056 16.1725V6.84394L20.2185 19.3291Z" fill="white"/>
<path d="M19.1205 43.9993C8.57579 43.9993 0 35.4952 0 25.026C0 14.5568 8.57579 6.05273 19.1205 6.05273C29.6653 6.05273 38.2411 14.5625 38.2411 25.026C38.2411 35.4896 29.6653 43.9993 19.1205 43.9993ZM19.1205 9.89822C10.7155 9.89822 3.87532 16.6857 3.87532 25.026C3.87532 33.3664 10.7155 40.1539 19.1205 40.1539C27.5256 40.1539 34.3657 33.372 34.3657 25.026C34.3657 16.68 27.5313 9.89822 19.1205 9.89822Z" fill="white"/>
</g>
<defs>
<clipPath id="clip0_7293_9608">
<rect width="44" height="44" fill="white"/>
</clipPath>
</defs>
</svg>
