<svg width="94" height="60" viewBox="0 0 94 60" fill="none" xmlns="http://www.w3.org/2000/svg">
<path d="M51.4776 34.4909H47.0977V26.7754H51.3509C52.1292 26.7754 52.9738 26.9261 53.3659 27.7037C53.6314 28.222 53.6796 29.078 53.5047 29.6325C53.3901 29.9942 53.1668 30.2896 52.7747 30.5367C53.0402 30.6452 53.2573 30.826 53.4323 31.049C53.8244 31.5855 53.8124 32.568 53.6615 33.1829C53.3961 34.2437 52.4429 34.4909 51.4776 34.4909ZM52.4549 28.0653C52.2679 27.7881 51.9361 27.6132 51.4414 27.6132H48.0086V30.1389H51.5017C52.1352 30.1389 52.5635 29.8495 52.642 29.2046C52.7144 28.7404 52.6601 28.3667 52.4549 28.0653ZM52.7747 31.9231C52.6178 31.2419 52.099 30.9767 51.4354 30.9767H48.0147V33.653H51.4474C52.0688 33.653 52.7264 33.4601 52.7988 32.7248C52.823 32.4354 52.835 32.1883 52.7747 31.9231Z" fill="white"/>
<path d="M62.2213 34.4912C61.9076 34.4912 61.5215 34.3525 61.3104 34.0873C60.882 34.3525 60.3933 34.4791 59.8745 34.4912C59.3376 34.4972 58.7041 34.4912 58.1551 34.461C57.214 34.4068 56.7615 33.81 56.6951 32.9059C56.671 32.5502 56.7072 32.279 56.7615 32.0077C56.8942 31.3025 57.763 30.977 58.3844 30.977H61.069V30.4646C61.069 29.898 60.7372 29.7051 60.2123 29.6509C59.6452 29.5846 58.8308 29.6087 58.4205 29.6328C58.0163 29.6509 57.6906 29.7956 57.6906 30.2537V30.5068H56.7192V30.1874C56.7192 29.1807 57.4251 28.8552 58.318 28.8311C59.0721 28.813 59.8443 28.813 60.5442 28.8673C61.3888 28.9276 61.986 29.6208 61.986 30.4767V33.3881C61.986 33.581 62.1369 33.6774 62.3239 33.6774H62.6316V34.4972H62.2213V34.4912ZM61.069 31.7727H58.5171C58.0948 31.7727 57.6906 31.9655 57.6544 32.3513C57.6302 32.5683 57.6302 32.7853 57.6423 32.9661C57.6664 33.4062 57.9258 33.6292 58.3904 33.6593C58.8489 33.6955 59.2652 33.6834 59.7056 33.6714C60.2124 33.6593 60.6829 33.5749 61.0751 33.2856V31.7727H61.069Z" fill="white"/>
<path d="M69.9697 34.4899V30.6201C69.9697 30.0415 69.5474 29.6918 68.9984 29.6497C68.5882 29.6195 67.9668 29.6376 67.5505 29.6798C67.1101 29.734 66.6938 29.933 66.368 30.2765V34.4899H65.457V28.854H66.368V29.282C67.2428 28.7033 68.4253 28.7997 69.4147 28.8841C70.2472 28.9565 70.8867 29.6617 70.8867 30.5056V34.4899H69.9697Z" fill="white"/>
<path d="M77.4381 34.4899V30.6201C77.4381 30.0415 77.0158 29.6918 76.4668 29.6497C76.0566 29.6195 75.4352 29.6376 75.0249 29.6798C74.5785 29.734 74.1682 29.933 73.8424 30.2765V34.4899H72.9375V28.854H73.8424V29.282C74.7172 28.7033 75.9057 28.7997 76.8951 28.8841C77.7337 28.9565 78.3612 29.6617 78.3612 30.5056V34.4899H77.4381Z" fill="white"/>
<path d="M86.8618 33.5868C86.5541 34.3102 85.9025 34.4729 85.2027 34.4729C84.2193 34.485 82.7533 34.696 81.9389 33.9967C81.6312 33.7315 81.4321 33.3578 81.408 32.8153C81.3899 32.1884 81.3597 31.4289 81.3959 30.7478C81.4804 29.3735 82.3431 28.8912 83.5798 28.8491C84.153 28.831 84.9192 28.8611 85.3294 28.9093C86.4515 29.0239 87.0428 29.7592 87.0428 30.8563V32.0498H82.2827C82.2827 32.4536 82.2405 32.9901 82.4879 33.3216C82.6508 33.5447 82.9403 33.6592 83.3808 33.6953C83.8815 33.7255 84.5632 33.7255 85.1243 33.7134C85.9629 33.6953 86.0534 33.6652 86.1318 32.9419L86.9945 32.9359C86.9764 33.3638 86.904 33.4723 86.8618 33.5868ZM86.1197 30.6875C86.0956 30.2837 85.9387 29.8557 85.5044 29.7592C85.0338 29.6628 84.1831 29.6327 83.616 29.6507C82.8438 29.6809 82.3853 29.8617 82.3129 30.7357C82.3008 30.9045 82.3129 31.0793 82.3008 31.2481H86.1197C86.1197 31.0673 86.1318 30.8804 86.1197 30.6875Z" fill="white"/>
<path d="M92.5917 29.6694C91.8497 29.6694 91.3369 30.019 91.0292 30.7001V34.4976H90.082V28.8617H91.0292V29.5368C91.349 29.0726 91.9221 28.8496 92.4711 28.8496H93.8345V29.6634H92.5917V29.6694Z" fill="white"/>
<path d="M53.1794 59.1857C52.745 59.686 52.0693 59.909 51.2126 59.9512C50.7239 59.9753 49.819 59.9934 49.1795 59.9392C47.4842 59.8126 46.9775 58.7216 46.9051 57.1905C46.8628 56.3707 46.8568 55.4847 46.9051 54.6528C47.0137 52.947 47.8462 52.2659 49.4751 52.2116C50.1388 52.1935 50.8627 52.2056 51.5384 52.2357C52.8295 52.296 53.6439 53.1218 53.6439 54.4238V54.5142H52.7209V54.466C52.7209 53.6764 52.2262 53.0917 51.4298 53.0374C50.7963 52.9952 50.1086 52.9952 49.5716 53.0133C48.4193 53.0495 47.9729 53.4473 47.8462 54.6227C47.7617 55.4003 47.7738 56.5214 47.8221 57.3111C47.8884 58.2574 48.0996 58.9627 49.1554 59.1013C49.6742 59.1676 50.7662 59.1736 51.3272 59.1435C52.3287 59.0772 52.7631 58.4684 52.7631 57.522V57.4557H53.6801V57.5462C53.6861 58.2574 53.5112 58.7999 53.1794 59.1857Z" fill="white"/>
<path d="M61.3073 59.9401V56.1366C61.3073 55.4193 60.6919 55.1541 60.0826 55.0998C59.7206 55.0697 59.3043 55.0697 58.9363 55.0938C58.327 55.13 57.8684 55.2626 57.4763 55.6725V59.9461H56.5352V52.2246H57.4763V54.6538C57.9288 54.3886 58.4717 54.3042 59.0207 54.274C59.4672 54.256 59.974 54.2379 60.4083 54.2801C61.802 54.4187 62.2484 55.142 62.2484 56.5164V59.9401H61.3073Z" fill="white"/>
<path d="M70.5682 59.939C70.2484 59.939 69.8684 59.722 69.6693 59.4387C69.3194 59.7702 68.8367 59.8787 68.517 59.9089C67.9861 59.9631 67.425 59.9932 66.9001 59.9511C65.8202 59.8667 65.1445 59.2157 65.1445 58.1066V54.291H66.0495V57.9257C66.0495 58.7756 66.3451 59.0891 67.1897 59.1313C67.5276 59.1433 67.9619 59.1433 68.3119 59.1011C68.7764 59.0348 69.1927 58.8661 69.4943 58.4743V54.297H70.4053V58.7093C70.4053 59.0168 70.6466 59.1253 70.7914 59.1253H71.0991V59.9511H70.5682V59.939Z" fill="white"/>
<path d="M76.2324 55.1106C75.4903 55.1106 74.9715 55.4602 74.6638 56.1414V59.9388H73.7227V54.2969H74.6638V54.978C74.9896 54.5199 75.5627 54.2969 76.1178 54.2969H77.4812V55.1106H76.2324Z" fill="white"/>
<path d="M85.0141 59.4266C84.6883 59.734 84.2237 59.9389 83.5782 59.9811C83.0473 60.0113 82.3234 59.9932 81.7442 59.951C80.4954 59.8485 80.0187 59.1433 79.8921 57.9799C79.8257 57.3711 79.8619 56.7563 79.9041 56.1776C79.9886 55.0263 80.7246 54.4838 81.7744 54.3572C82.4018 54.2849 83.0956 54.3151 83.723 54.3452C84.453 54.3874 84.9296 54.6767 85.2132 55.0806C85.4665 55.4302 85.5631 55.8702 85.5631 56.2982L85.545 56.3042H84.6762V56.3524C84.6762 55.7255 84.3263 55.2614 83.6928 55.177C83.2223 55.1107 82.631 55.1228 82.2087 55.1469C81.3641 55.177 80.9177 55.4242 80.803 56.3404C80.7487 56.7864 80.7849 57.3952 80.8091 57.8533C80.8513 58.5525 81.153 59.0589 81.889 59.1433C82.4923 59.2035 83.0171 59.2035 83.6023 59.1613C84.3444 59.1071 84.6822 58.6731 84.6822 57.9799V57.992L85.551 58.004L85.557 58.1065C85.5691 58.5887 85.4002 59.0649 85.0141 59.4266Z" fill="white"/>
<path d="M92.8715 59.9401V56.1366C92.8715 55.4193 92.2622 55.1541 91.6468 55.0998C91.2849 55.0697 90.8626 55.0697 90.5066 55.0938C89.8912 55.13 89.4388 55.2626 89.0466 55.6725V59.9461H88.1055V52.2246H89.0466V54.6538C89.4991 54.3886 90.0421 54.3042 90.5911 54.274C91.0315 54.256 91.5443 54.2379 91.9787 54.2801C93.3723 54.4187 93.8187 55.142 93.8187 56.5164V59.9401H92.8715Z" fill="white"/>
<path d="M48.3421 41.0484V42.5674H50.4597V47.1183C50.4597 47.4378 50.3451 47.7512 50.1339 47.9743C49.9408 48.1852 49.6875 48.3179 49.3798 48.3179H48.6739V47.5584H49.2048C49.3979 47.5584 49.6754 47.3112 49.6754 47.0761V43.3269H48.3421V47.2992C48.3421 47.5825 48.2214 47.8477 48.0405 48.0406C47.8715 48.2094 47.6483 48.3179 47.3829 48.3179H46.9062V47.5584H47.1476C47.2984 47.5584 47.5457 47.2992 47.5457 47.1304V41.0484H46.9605V40.2889H48.4809V39.0352H49.3074V40.2889H50.5562V41.0484H48.3421ZM52.2394 40.7591L52.1549 40.964C52.0705 41.1569 51.9498 41.3076 51.805 41.4161C51.6421 41.5306 51.4431 41.5849 51.2198 41.5849H50.7855V40.8796H50.9846C51.1897 40.8796 51.3646 40.6747 51.431 40.5059L52.0222 39.0412H52.9332L52.5411 40.0056H56.3056V40.7651H52.2394V40.7591ZM50.9242 48.3239V47.5644H53.2409V45.7742H51.2379V45.0147H53.2409V43.3209H52.0705L52.0162 43.5861C51.974 43.8151 51.8473 44.0261 51.6663 44.1768C51.5215 44.2853 51.3405 44.3576 51.1474 44.3576H50.7975V43.6403H50.9544C51.1112 43.6403 51.2379 43.4896 51.2681 43.351L51.5879 41.8802H52.3721L52.2273 42.5433H53.2288V41.2895H54.0855V42.5493H56.1367V43.3209H54.0855V45.0147H55.9195V45.7742H54.0855V47.5644H56.3056V48.3239H50.9242Z" fill="white"/>
<path d="M60.6376 41.074V42.5387H62.7009V47.2283C62.7009 47.4875 62.5984 47.7648 62.4174 47.9697C62.2364 48.1626 61.983 48.3012 61.6934 48.3012H61.0479V47.5839H61.5908C61.7296 47.5839 61.8985 47.391 61.8985 47.2524V43.3042H60.6376V47.4453C60.6376 47.6743 60.529 47.8733 60.3782 48.036C60.2334 48.1927 60.0162 48.3012 59.8051 48.3012H59.3164V47.5839H59.5939C59.7085 47.5839 59.8292 47.4513 59.8292 47.3488V41.074H59.3647V40.3145H60.8126V39.0607H61.6391V40.3145H62.7914V41.074H60.6376ZM64.722 47.6924C64.5953 47.8733 64.4444 48.0239 64.2755 48.1264C64.0945 48.2349 63.8773 48.3012 63.6481 48.3012H62.9905V47.5839H63.5757C63.7145 47.5839 63.9497 47.4453 64.0342 47.3368L64.4927 46.6677H65.3916L64.722 47.6924ZM63.0207 46.3844V45.6671H63.8291V42.5146H63.1836V41.7973H63.8291V41.3513H63.0508V40.6219H63.4792C63.6179 40.6219 63.7929 40.4712 63.8472 40.3446L64.3479 39.0547H65.1986L64.9512 39.6575H68.6193V40.4109H64.6496L64.4806 40.8148C64.4384 40.9233 64.354 41.0077 64.2936 41.074H64.6375V41.8033H67.0869V41.074H67.8712V41.8033H68.5107V42.5206H67.8832V45.6731H68.6675V46.3904H63.0207V46.3844ZM67.0929 42.5206H64.6435V43.1053H67.0929V42.5206ZM67.0929 43.7744H64.6435V44.3531H67.0929V43.7744ZM67.0929 45.0282H64.6435V45.6731H67.0929V45.0282ZM68.2452 48.3012C68.0341 48.3012 67.8109 48.247 67.5997 48.1385C67.3885 48.042 67.2015 47.8913 67.0688 47.7226L66.3086 46.6677H67.2619L67.7928 47.3488C67.8893 47.4754 68.1004 47.5839 68.2573 47.5839H68.7761V48.3012H68.2452Z" fill="white"/>
<path d="M76.6097 45.8292C76.2175 45.8292 75.8918 45.9016 75.6203 46.0161L75.198 46.1909V47.1071C75.198 47.4567 75.1075 47.7581 74.8903 47.9751C74.6912 48.1801 74.3714 48.3066 73.9491 48.3066H73.201V47.5773H73.8948C74.2025 47.5773 74.4257 47.3482 74.4257 47.083V46.438L74.0276 46.6189C73.7681 46.7274 73.5268 46.7696 73.2493 46.7696L72.3021 46.7816V46.0282H73.2553C73.4786 46.0282 73.6897 45.9679 73.8707 45.8895L74.4257 45.6424V44.7623L75.6746 44.027H73.8224L73.7138 44.2922C73.6234 44.5092 73.4665 44.69 73.2795 44.8286C73.1045 44.9613 72.8873 45.0336 72.6158 45.0336H72.1875V44.3283H72.4107C72.6339 44.3283 72.8994 44.1897 72.9718 44.0209L73.6294 42.4778H72.284V41.7424H73.9974V40.6273H72.5012V39.898H73.9974V39.0842H74.8179V39.898H75.6203V40.6273H74.8179V41.7424H75.3488L76.3382 39.4157H77.219L76.2356 41.7424H76.8812V42.4778H74.4921L74.1301 43.3157H76.9294V43.9968L75.204 45.0698V45.3591L75.5961 45.2325C75.8495 45.1421 76.2417 45.0698 76.5071 45.0698H77.2914V45.8292H76.6097ZM80.9715 48.2825C80.8026 48.2825 80.6096 48.1861 80.4286 48.0655C80.2415 47.9269 80.0666 47.74 79.9942 47.5833L79.3909 46.2331L78.9263 47.5773C78.8419 47.8244 78.679 47.9932 78.4799 48.1138C78.2748 48.2343 78.0274 48.2825 77.7499 48.2825H76.8389V47.5773H77.6051C77.8947 47.5773 78.1481 47.4387 78.2446 47.1433L78.9082 45.1722L77.8947 42.948H78.7333L79.2823 44.1415L79.7589 42.6406C79.8313 42.4055 79.8615 42.0921 79.8615 41.8148V41.3145H78.5463L78.3834 41.8931C78.311 42.1403 78.1421 42.3513 77.9188 42.5019C77.7198 42.6285 77.4845 42.7069 77.2492 42.7069H77.0561V41.9715C77.4422 41.9836 77.6172 41.7907 77.6715 41.5435L78.2024 39.0059H79.047L78.685 40.561H81.5507V41.3205H80.6397V41.8208C80.6397 42.1342 80.5794 42.5502 80.4829 42.8636L79.7529 45.1783L80.6759 47.1795C80.7724 47.3723 80.9836 47.5893 81.1586 47.5893H81.6171V48.2946H80.9715V48.2825Z" fill="white"/>
<path d="M93.5218 41.4594C93.2021 41.4594 92.828 41.3389 92.5626 41.14H86.0108C85.7815 41.3329 85.4497 41.4594 85.1119 41.4594H84.5508V40.8085H84.9429C85.142 40.8085 85.3652 40.7361 85.4859 40.5854L86.4813 39.2051H92.092L93.0151 40.495C93.1599 40.6939 93.4193 40.8145 93.6727 40.8145H93.9984V41.4655H93.5218V41.4594ZM93.2564 44.19C93.0332 44.4492 92.6953 44.624 92.1825 44.624H85.0033V41.7006H93.552V43.2858C93.552 43.6234 93.4555 43.9429 93.2564 44.19ZM92.997 47.8488C92.7677 48.1382 92.3937 48.319 91.9593 48.319H85.2566V45.1906H93.3167V46.9447C93.3227 47.2943 93.2021 47.6017 92.997 47.8488ZM88.8583 42.3274H85.8539V43.9971H88.8583V42.3274ZM92.4842 45.8295H86.1375V46.4625H92.4842V45.8295ZM92.4842 47.0411H86.1375V47.6981H91.8809C92.2127 47.6981 92.4842 47.445 92.4842 47.1737V47.0411ZM87.6276 43.5872C87.3622 43.5872 87.0484 43.4908 86.8976 43.3401L86.1857 42.5987H87.1812L87.513 42.9001C87.5793 42.9664 87.6759 42.9965 87.7664 42.9965H88.4903V43.5872H87.6276ZM91.5491 39.844H87.0243L86.5477 40.5071H92.0257L91.5491 39.844ZM92.7134 42.3274H89.6788V43.9971H92.1162C92.4299 43.9971 92.7074 43.7922 92.7074 43.4607V42.3274H92.7134ZM91.7723 43.2798C91.6335 43.4305 91.2534 43.5933 91.0423 43.5933H90.1011V43.0025H90.7587C90.8975 43.0025 91.0664 42.9483 91.1328 42.876L91.3862 42.6047H92.3997L91.7723 43.2798Z" fill="white"/>
<path d="M17.7266 37.8903V17.9265L46.6487 0V19.9638L17.7266 37.8903ZM21.4369 20.6329V30.5907L42.9445 17.2634V7.30561L21.4369 20.6329Z" fill="white"/>
<path d="M20.2708 46.9673C9.09171 46.9673 0 37.8895 0 26.7141C0 15.5507 9.09171 6.46094 20.2708 6.46094C31.45 6.46094 40.5417 15.5447 40.5417 26.7141C40.5417 37.8895 31.45 46.9673 20.2708 46.9673ZM20.2708 10.5658C11.3601 10.5658 4.10847 17.8111 4.10847 26.7141C4.10847 35.6231 11.3601 42.8624 20.2708 42.8624C29.1816 42.8624 36.4332 35.6231 36.4332 26.7141C36.4332 17.8111 29.1816 10.5658 20.2708 10.5658Z" fill="white"/>
</svg>
