<svg width="20" height="20" viewBox="0 0 20 20" fill="none" xmlns="http://www.w3.org/2000/svg">
<path d="M17.5355 9.28333C17.6538 9.28333 17.7655 9.33083 17.8521 9.41917L18.9155 10.4825C18.958 10.5244 18.9917 10.5744 19.0147 10.6295C19.0377 10.6845 19.0496 10.7436 19.0496 10.8033C19.0496 10.863 19.0377 10.9221 19.0147 10.9772C18.9917 11.0323 18.958 11.0822 18.9155 11.1242L18.0821 11.9575L16.3771 10.2525L17.2105 9.41917C17.2972 9.33369 17.4137 9.28503 17.5355 9.28333ZM15.8871 10.7333L17.5921 12.4433L12.5538 17.5H10.8346V15.7808L15.8871 10.7333ZM10.0013 4.74L5.83464 8.49V15H9.16797V16.6667H4.16797V10H1.66797L10.0013 2.5L16.2171 8.09417L14.168 10.1433V8.49L10.0013 4.74Z" fill="#0C3176"/>
</svg>
