<svg width="20" height="20" viewBox="0 0 20 20" fill="none" xmlns="http://www.w3.org/2000/svg">
<path d="M17.534 9.28333C17.6523 9.28333 17.764 9.33083 17.8507 9.41917L18.914 10.4825C18.9565 10.5244 18.9902 10.5744 19.0132 10.6295C19.0363 10.6845 19.0481 10.7436 19.0481 10.8033C19.0481 10.863 19.0363 10.9221 19.0132 10.9772C18.9902 11.0323 18.9565 11.0822 18.914 11.1242L18.0807 11.9575L16.3757 10.2525L17.209 9.41917C17.2958 9.33369 17.4122 9.28503 17.534 9.28333ZM15.8857 10.7333L17.5907 12.4433L12.5523 17.5H10.8332V15.7808L15.8857 10.7333ZM9.99984 4.74L5.83317 8.49V15H9.1665V16.6667H4.1665V10H1.6665L9.99984 2.5L16.2157 8.09417L14.1665 10.1433V8.49L9.99984 4.74Z" fill="black"/>
</svg>
