<svg width="20" height="20" viewBox="0 0 20 20" fill="none" xmlns="http://www.w3.org/2000/svg">
<path d="M6 3C5.20435 3 4.44129 3.31607 3.87868 3.87868C3.31607 4.44129 3 5.20435 3 6V14C3 14.7956 3.31607 15.5587 3.87868 16.1213C4.44129 16.6839 5.20435 17 6 17H11.038C11.0126 16.8345 10.9999 16.6674 11 16.5C11 16.329 11.017 16.162 11.05 16H6C5.46957 16 4.96086 15.7893 4.58579 15.4142C4.21071 15.0391 4 14.5304 4 14V6C4 5.46957 4.21071 4.96086 4.58579 4.58579C4.96086 4.21071 5.46957 4 6 4H14C14.5304 4 15.0391 4.21071 15.4142 4.58579C15.7893 4.96086 16 5.46957 16 6V9.041C16.359 9.101 16.696 9.226 17 9.401V6C17 5.20435 16.6839 4.44129 16.1213 3.87868C15.5587 3.31607 14.7956 3 14 3H6ZM13.854 7.854C13.9479 7.76011 14.0006 7.63278 14.0006 7.5C14.0006 7.36722 13.9479 7.23989 13.854 7.146C13.7601 7.05211 13.6328 6.99937 13.5 6.99937C13.3672 6.99937 13.2399 7.05211 13.146 7.146L8.5 11.793L6.854 10.146C6.76011 10.0521 6.63278 9.99937 6.5 9.99937C6.36722 9.99937 6.23989 10.0521 6.146 10.146C6.05211 10.2399 5.99937 10.3672 5.99937 10.5C5.99937 10.6328 6.05211 10.7601 6.146 10.854L8.146 12.854C8.19245 12.9006 8.24762 12.9375 8.30837 12.9627C8.36911 12.9879 8.43423 13.0009 8.5 13.0009C8.56577 13.0009 8.63089 12.9879 8.69163 12.9627C8.75238 12.9375 8.80755 12.9006 8.854 12.854L13.854 7.854ZM17.5 12C17.5 12.5304 17.2893 13.0391 16.9142 13.4142C16.5391 13.7893 16.0304 14 15.5 14C14.9696 14 14.4609 13.7893 14.0858 13.4142C13.7107 13.0391 13.5 12.5304 13.5 12C13.5 11.4696 13.7107 10.9609 14.0858 10.5858C14.4609 10.2107 14.9696 10 15.5 10C16.0304 10 16.5391 10.2107 16.9142 10.5858C17.2893 10.9609 17.5 11.4696 17.5 12ZM19 16.5C19 17.745 18 19 15.5 19C13 19 12 17.75 12 16.5C12 16.1022 12.158 15.7206 12.4393 15.4393C12.7206 15.158 13.1022 15 13.5 15H17.5C17.8978 15 18.2794 15.158 18.5607 15.4393C18.842 15.7206 19 16.1022 19 16.5Z" fill="black"/>
</svg>
