<svg width="20" height="20" viewBox="0 0 20 20" fill="none" xmlns="http://www.w3.org/2000/svg">
<path d="M4.5 5.75C4.5 5.15326 4.73705 4.58097 5.15901 4.15901C5.58097 3.73705 6.15326 3.5 6.75 3.5C7.34674 3.5 7.91903 3.73705 8.34099 4.15901C8.76295 4.58097 9 5.15326 9 5.75C9 6.34674 8.76295 6.91903 8.34099 7.34099C7.91903 7.76295 7.34674 8 6.75 8C6.15326 8 5.58097 7.76295 5.15901 7.34099C4.73705 6.91903 4.5 6.34674 4.5 5.75ZM6.75 2.5C5.88805 2.5 5.0614 2.84241 4.4519 3.4519C3.84241 4.0614 3.5 4.88805 3.5 5.75C3.5 6.61195 3.84241 7.4386 4.4519 8.0481C5.0614 8.65759 5.88805 9 6.75 9C7.61195 9 8.4386 8.65759 9.0481 8.0481C9.65759 7.4386 10 6.61195 10 5.75C10 4.88805 9.65759 4.0614 9.0481 3.4519C8.4386 2.84241 7.61195 2.5 6.75 2.5ZM10 10C10.5209 9.9998 11.0213 10.2028 11.3948 10.5659C11.7683 10.9289 11.9854 11.4233 12 11.944L10.584 13.359C10.8055 12.9939 10.9453 12.5852 10.994 12.161C10.997 12.123 10.999 12.095 10.999 12.078L11 12.061V12C11 11.7348 10.8946 11.4804 10.7071 11.2929C10.5196 11.1054 10.2652 11 10 11H3.5C3.23478 11 2.98043 11.1054 2.79289 11.2929C2.60536 11.4804 2.5 11.7348 2.5 12V12.078L2.507 12.161C2.56118 12.6404 2.73219 13.0991 3.005 13.497C3.492 14.201 4.513 15 6.75 15C8.31 15 9.279 14.611 9.887 14.137C9.678 14.447 9.524 14.79 9.433 15.155L9.327 15.58C8.645 15.84 7.798 16 6.75 16C4.237 16 2.883 15.08 2.182 14.066C1.81282 13.5283 1.58263 12.9074 1.512 12.259C1.50602 12.2008 1.50202 12.1425 1.5 12.084V12C1.5 11.4696 1.71071 10.9609 2.08579 10.5858C2.46086 10.2107 2.96957 10 3.5 10H10ZM17 6.5C17 7.16304 16.7366 7.79893 16.2678 8.26777C15.7989 8.73661 15.163 9 14.5 9C13.837 9 13.2011 8.73661 12.7322 8.26777C12.2634 7.79893 12 7.16304 12 6.5C12 5.83696 12.2634 5.20107 12.7322 4.73223C13.2011 4.26339 13.837 4 14.5 4C15.163 4 15.7989 4.26339 16.2678 4.73223C16.7366 5.20107 17 5.83696 17 6.5ZM13 6.5C13 6.89782 13.158 7.27936 13.4393 7.56066C13.7206 7.84196 14.1022 8 14.5 8C14.8978 8 15.2794 7.84196 15.5607 7.56066C15.842 7.27936 16 6.89782 16 6.5C16 6.10218 15.842 5.72064 15.5607 5.43934C15.2794 5.15804 14.8978 5 14.5 5C14.1022 5 13.7206 5.15804 13.4393 5.43934C13.158 5.72064 13 6.10218 13 6.5ZM15.81 9.548L10.98 14.378C10.6985 14.6594 10.4987 15.0119 10.402 15.398L10.027 16.896C9.99002 17.045 9.9922 17.201 10.0333 17.3489C10.0745 17.4968 10.1532 17.6315 10.2618 17.74C10.3703 17.8485 10.5052 17.9271 10.6531 17.9681C10.801 18.0091 10.957 18.0111 11.106 17.974L12.604 17.6C12.9901 17.5034 13.3427 17.3036 13.624 17.022L18.454 12.192C18.8001 11.8403 18.9932 11.3661 18.9912 10.8726C18.9892 10.3792 18.7923 9.90656 18.4433 9.5577C18.0943 9.20885 17.6216 9.01207 17.1281 9.01026C16.6347 9.00844 16.1605 9.20173 15.809 9.548H15.81Z" fill="#0C3176"/>
</svg>
