<svg width="20" height="21" viewBox="0 0 20 21" fill="none" xmlns="http://www.w3.org/2000/svg">
<path d="M4.16667 18H15.8333C16.2754 18 16.6993 17.8244 17.0118 17.5118C17.3244 17.1993 17.5 16.7754 17.5 16.3333V7.16667L13.3333 3H4.16667C3.72464 3 3.30072 3.17559 2.98816 3.48816C2.67559 3.80072 2.5 4.22464 2.5 4.66667V16.3333C2.5 16.7754 2.67559 17.1993 2.98816 17.5118C3.30072 17.8244 3.72464 18 4.16667 18ZM5.83333 4.66667H9.16667V6.33333H10.8333V4.66667H12.5V8H5.83333V4.66667ZM5.83333 11.3333H14.1667V16.3333H5.83333V11.3333Z" fill="white"/>
</svg>
