<svg width="20" height="20" viewBox="0 0 20 20" fill="none" xmlns="http://www.w3.org/2000/svg">
<path d="M3.10673 9.16634C2.78728 9.16634 2.54784 9.03079 2.3884 8.75968C2.2284 8.48912 2.22478 8.21495 2.37756 7.93717L5.12756 2.97884C5.2109 2.82606 5.31506 2.71495 5.44006 2.64551C5.56506 2.57606 5.70395 2.54134 5.85673 2.54134C6.00951 2.54134 6.1484 2.57606 6.2734 2.64551C6.3984 2.71495 6.50256 2.82606 6.5859 2.97884L9.3359 7.93717C9.48867 8.21495 9.48534 8.48912 9.3259 8.75968C9.1659 9.03079 8.92617 9.16634 8.60673 9.16634H3.10673ZM5.85673 17.4997C4.94006 17.4997 4.15534 17.1733 3.50256 16.5205C2.84978 15.8677 2.5234 15.083 2.5234 14.1663C2.5234 13.2358 2.84978 12.4475 3.50256 11.8013C4.15534 11.1558 4.94006 10.833 5.85673 10.833C6.7734 10.833 7.55812 11.1594 8.2109 11.8122C8.86367 12.465 9.19006 13.2497 9.19006 14.1663C9.19006 15.083 8.86367 15.8677 8.2109 16.5205C7.55812 17.1733 6.7734 17.4997 5.85673 17.4997ZM11.6901 17.4997C11.454 17.4997 11.2559 17.4197 11.0959 17.2597C10.9365 17.1002 10.8567 16.9025 10.8567 16.6663V11.6663C10.8567 11.4302 10.9365 11.2322 11.0959 11.0722C11.2559 10.9127 11.454 10.833 11.6901 10.833H16.6901C16.9262 10.833 17.1242 10.9127 17.2842 11.0722C17.4437 11.2322 17.5234 11.4302 17.5234 11.6663V16.6663C17.5234 16.9025 17.4437 17.1002 17.2842 17.2597C17.1242 17.4197 16.9262 17.4997 16.6901 17.4997H11.6901ZM14.1901 8.85384C14.079 8.85384 13.9678 8.83634 13.8567 8.80134C13.7456 8.7669 13.6484 8.71495 13.5651 8.64551C12.8012 8.00662 12.1865 7.47884 11.7209 7.06217C11.2559 6.64551 10.8984 6.2844 10.6484 5.97884C10.3984 5.67329 10.2317 5.39551 10.1484 5.14551C10.0651 4.89551 10.0234 4.61773 10.0234 4.31217C10.0234 3.68717 10.242 3.1594 10.6792 2.72884C11.117 2.29829 11.6623 2.08301 12.3151 2.08301C12.6901 2.08301 13.0409 2.16967 13.3676 2.34301C13.6937 2.5169 13.9678 2.75662 14.1901 3.06217C14.4123 2.75662 14.6867 2.5169 15.0134 2.34301C15.3395 2.16967 15.6901 2.08301 16.0651 2.08301C16.7178 2.08301 17.2631 2.29829 17.7009 2.72884C18.1381 3.1594 18.3567 3.68717 18.3567 4.31217C18.3567 4.60384 18.3187 4.87467 18.2426 5.12467C18.1659 5.37467 18.0026 5.65245 17.7526 5.95801C17.5026 6.26356 17.1451 6.62801 16.6801 7.05134C16.2145 7.47523 15.5998 8.00662 14.8359 8.64551C14.7526 8.71495 14.652 8.7669 14.5342 8.80134C14.4159 8.83634 14.3012 8.85384 14.1901 8.85384Z" fill="white"/>
</svg>
