<svg width="20" height="20" viewBox="0 0 20 20" fill="none" xmlns="http://www.w3.org/2000/svg">
<path d="M4.10826 3.57129C3.39786 3.57129 2.71655 3.85349 2.21422 4.35582C1.71189 4.85815 1.42969 5.53946 1.42969 6.24986V6.78557H18.5697V6.24986C18.5697 5.53946 18.2875 4.85815 17.7852 4.35582C17.2828 3.85349 16.6015 3.57129 15.8911 3.57129H4.10897H4.10826ZM1.42969 13.7499V7.857H18.5697V13.7499C18.5697 14.4603 18.2875 15.1416 17.7852 15.6439C17.2828 16.1462 16.6015 16.4284 15.8911 16.4284H4.10897C3.39857 16.4284 2.71727 16.1462 2.21494 15.6439C1.71261 15.1416 1.4304 14.4603 1.4304 13.7499H1.42969ZM13.034 11.7856C12.8919 11.7856 12.7556 11.842 12.6552 11.9425C12.5547 12.0429 12.4983 12.1792 12.4983 12.3213C12.4983 12.4634 12.5547 12.5996 12.6552 12.7001C12.7556 12.8006 12.8919 12.857 13.034 12.857H15.534C15.6761 12.857 15.8123 12.8006 15.9128 12.7001C16.0132 12.5996 16.0697 12.4634 16.0697 12.3213C16.0697 12.1792 16.0132 12.0429 15.9128 11.9425C15.8123 11.842 15.6761 11.7856 15.534 11.7856H13.034Z" fill="white"/>
</svg>
