<?xml version="1.0" encoding="utf-8"?>
<!-- Generator: Adobe Illustrator 16.0.0, SVG Export Plug-In . SVG Version: 6.00 Build 0)  -->
<!DOCTYPE svg PUBLIC "-//W3C//DTD SVG 1.1//EN" "http://www.w3.org/Graphics/SVG/1.1/DTD/svg11.dtd">
<svg version="1.1" id="圖層_1" xmlns="http://www.w3.org/2000/svg" xmlns:xlink="http://www.w3.org/1999/xlink" x="0px" y="0px"
	 width="192.295px" height="71.79px" viewBox="0 0 192.295 71.79" enable-background="new 0 0 192.295 71.79" xml:space="preserve">
<g>
	<path fill="#0C3178" d="M69.411,54.541h-1.129l-0.734,1.791c-0.076,0.207-0.299,0.459-0.549,0.459h-0.25v0.867h0.538
		c0.276,0,0.524-0.064,0.722-0.209c0.182-0.131,0.325-0.314,0.434-0.553l0.1-0.25h5.033v-0.93h-4.65L69.411,54.541z"/>
	<path fill="#0C3178" d="M70.838,62.779h2.266v-0.93h-2.266v-2.07h2.527v-0.943h-2.527v-1.545h-1.062v1.545h-1.235l0.174-0.813
		h-0.972l-0.392,1.795c-0.038,0.172-0.195,0.354-0.391,0.354h-0.2v0.877h0.434c0.237,0,0.459-0.092,0.638-0.223
		c0.226-0.182,0.383-0.443,0.437-0.725l0.063-0.322h1.443v2.07h-2.476v0.93h2.476v2.188h-2.858v0.928h6.656v-0.928h-2.736V62.779z"
		/>
	<path fill="#0C3178" d="M64.918,54.541h-1.022v1.531h-1.876v0.932h0.724v7.438c0,0.209-0.305,0.525-0.489,0.525h-0.298v0.928h0.588
		c0.324,0,0.603-0.131,0.811-0.338c0.224-0.238,0.369-0.563,0.369-0.906v-4.859h1.65v4.584c0,0.287-0.341,0.592-0.578,0.592h-0.657
		v0.928h0.867c0.379,0,0.691-0.158,0.933-0.418c0.258-0.275,0.405-0.654,0.405-1.047v-5.568h-2.621v-1.857h2.735v-0.932h-1.543
		V54.541z"/>
	<path fill="#0C3178" d="M88.822,64.707l-0.653-0.832h-1.18l0.939,1.287c0.159,0.213,0.398,0.395,0.657,0.512
		c0.262,0.129,0.538,0.199,0.796,0.199h0.658v-0.879h-0.639C89.203,64.994,88.941,64.861,88.822,64.707z"/>
	<path fill="#0C3178" d="M84.171,64.689c-0.103,0.133-0.392,0.305-0.564,0.305h-0.72v0.879H83.7c0.287,0,0.549-0.082,0.774-0.213
		c0.209-0.133,0.389-0.314,0.547-0.535l0.827-1.25h-1.113L84.171,64.689z"/>
	<path fill="#0C3178" d="M81.211,54.564H80.19v1.533h-1.786v0.932h0.581v7.678c0,0.127-0.146,0.287-0.291,0.287h-0.342v0.879h0.603
		c0.263,0,0.524-0.137,0.707-0.328c0.185-0.199,0.317-0.445,0.317-0.723v-5.064h1.557v4.826c0,0.176-0.208,0.41-0.38,0.41H80.49
		v0.879h0.801c0.352,0,0.668-0.176,0.89-0.41c0.223-0.248,0.353-0.588,0.353-0.906v-5.734H79.98v-1.793h2.659v-0.932h-1.429V54.564z
		"/>
	<path fill="#0C3178" d="M89.912,62.65h-0.971v-3.855h0.772v-0.879H88.93v-0.887h-0.973v0.887h-3.024v-0.887H84.51
		c0.067-0.082,0.174-0.186,0.226-0.314l0.208-0.496h4.901v-0.92h-4.535l0.305-0.734h-1.051l-0.616,1.574
		c-0.063,0.156-0.286,0.34-0.455,0.34h-0.525v0.891h0.957v0.547h-0.798v0.879h0.798v3.855h-0.996v0.877h6.984V62.65z M87.957,62.65
		h-3.024v-0.791h3.024V62.65z M87.957,61.035h-3.024V60.33h3.024V61.035z M87.957,59.514h-3.024v-0.719h3.024V59.514z"/>
	<path fill="#0C3178" d="M104.733,64.482l-1.14-2.449l0.906-2.832c0.116-0.379,0.194-0.891,0.194-1.271v-0.611h1.128v-0.936h-3.54
		l0.447-1.895h-1.047l-0.656,3.105c-0.065,0.299-0.287,0.539-0.76,0.52v0.904h0.237c0.29,0,0.578-0.092,0.827-0.248
		c0.273-0.18,0.481-0.443,0.573-0.742l0.2-0.709h1.622v0.611c0,0.344-0.04,0.721-0.13,1.014l-0.591,1.832l-0.68-1.457h-1.033
		l1.254,2.725l-0.821,2.412c-0.121,0.357-0.433,0.527-0.788,0.527h-0.944v0.861h1.129c0.34,0,0.651-0.064,0.899-0.209
		c0.251-0.143,0.449-0.354,0.553-0.652l0.576-1.641l0.745,1.652c0.094,0.193,0.305,0.414,0.539,0.59
		c0.221,0.141,0.459,0.26,0.669,0.26h0.798v-0.861h-0.563C105.112,64.982,104.854,64.719,104.733,64.482z"/>
	<path fill="#0C3178" d="M100.554,61.914h-0.969c-0.329,0-0.814,0.09-1.127,0.197l-0.483,0.154v-0.352l2.132-1.311v-0.838H96.65
		l0.448-1.025h2.946v-0.9h-0.799l1.22-2.84h-1.089l-1.22,2.84h-0.652v-1.361h0.993v-0.893h-0.993v-0.992h-1.012v0.992h-1.848v0.893
		h1.848v1.361h-2.12v0.9h1.661l-0.811,1.893c-0.091,0.205-0.417,0.375-0.692,0.375h-0.277v0.867h0.526
		c0.34,0,0.603-0.092,0.823-0.252c0.235-0.164,0.422-0.391,0.537-0.652l0.132-0.324h2.292l-1.546,0.902v1.074l-0.677,0.299
		c-0.223,0.092-0.487,0.17-0.762,0.17h-1.18v0.92l1.168-0.014c0.341,0,0.642-0.055,0.958-0.184l0.493-0.223v0.783
		c0,0.332-0.271,0.607-0.651,0.607h-0.853v0.891h0.918c0.522,0,0.915-0.162,1.162-0.41c0.266-0.262,0.383-0.629,0.383-1.057v-1.117
		l0.523-0.219c0.326-0.139,0.733-0.225,1.218-0.225h0.838V61.914z"/>
	<path fill="#0C3178" d="M110.084,61.367h8.869c0.632,0,1.047-0.211,1.323-0.529c0.251-0.299,0.366-0.689,0.366-1.113v-1.939
		h-10.558V61.367z M115.861,58.561h3.748v1.389c0,0.406-0.343,0.654-0.732,0.654h-3.016V58.561z M111.134,58.561h3.708v2.043h-3.708
		V58.561z"/>
	<path fill="#0C3178" d="M119.974,56.311l-1.138-1.576h-6.932l-1.229,1.691c-0.146,0.18-0.422,0.275-0.67,0.275h-0.486V57.5h0.695
		c0.419,0,0.826-0.158,1.113-0.395h8.096c0.327,0.248,0.788,0.395,1.183,0.395h0.585v-0.799h-0.406
		C120.473,56.701,120.147,56.553,119.974,56.311z M111.985,56.332l0.59-0.811h5.593l0.589,0.811H111.985z"/>
	<path fill="#0C3178" d="M113.176,59.266l-0.408-0.367h-1.229l0.875,0.906c0.187,0.186,0.577,0.299,0.907,0.299h1.061v-0.719h-0.892
		C113.375,59.385,113.255,59.348,113.176,59.266z"/>
	<path fill="#0C3178" d="M110.399,65.895h8.28c0.535,0,0.994-0.221,1.281-0.576c0.252-0.301,0.394-0.68,0.394-1.1v-2.146h-9.955
		V65.895z M111.475,62.846h7.845v0.771h-7.845V62.846z M111.475,64.326h7.845v0.168c0,0.328-0.339,0.641-0.748,0.641h-7.097V64.326z
		"/>
	<path fill="#0C3178" d="M117.959,58.898l-0.315,0.334c-0.081,0.086-0.288,0.152-0.46,0.152h-0.812v0.719h1.165
		c0.263,0,0.735-0.193,0.904-0.379l0.772-0.826H117.959z"/>
	<path fill="#0C3178" d="M28.114,14.09c-14.162,0-25.676,11.517-25.676,25.674c0,14.162,11.514,25.68,25.676,25.68
		c14.161,0,25.677-11.518,25.677-25.68c0-1.223-0.092-2.426-0.258-3.602l7.988-4.958V5.895l-19.661,12.2
		C37.883,15.564,33.168,14.09,28.114,14.09z M48.582,39.764c0,11.291-9.18,20.471-20.468,20.471c-11.287,0-20.47-9.18-20.47-20.471
		c0-11.286,9.183-20.472,20.47-20.472c3.105,0,6.049,0.699,8.688,1.942l-11.912,7.39V53.93L48.568,39.24
		C48.573,39.416,48.582,39.59,48.582,39.764z M47.598,33.5L29.587,44.674V32.053l12.158-7.543
		C44.425,26.908,46.47,29.998,47.598,33.5z M56.827,27.774l-4.698,2.915c-1.293-3.408-3.287-6.474-5.812-9.015l10.51-6.52V27.774z"
		/>
	<path fill="#0C3178" d="M70.109,48.004c0.187-0.775,0.203-2.012-0.294-2.686c-0.217-0.283-0.498-0.512-0.832-0.646
		c0.497-0.309,0.78-0.684,0.925-1.139c0.227-0.699,0.162-1.775-0.175-2.432c-0.497-0.975-1.571-1.166-2.564-1.166h-5.413v9.721
		h5.575C68.562,49.656,69.773,49.344,70.109,48.004z M62.923,40.984h4.369c0.626,0,1.046,0.225,1.286,0.574
		c0.256,0.379,0.324,0.848,0.244,1.424c-0.105,0.816-0.646,1.18-1.454,1.18h-4.445V40.984z M62.923,48.594v-3.367h4.354
		c0.845,0,1.504,0.334,1.706,1.193c0.079,0.336,0.063,0.645,0.025,1.01c-0.094,0.924-0.927,1.164-1.716,1.164H62.923z"/>
	<path fill="#0C3178" d="M81,49.656h0.525v-1.033h-0.392c-0.241,0-0.429-0.121-0.429-0.363v-3.668c0-1.07-0.764-1.945-1.839-2.023
		c-0.888-0.07-1.867-0.07-2.829-0.043c-1.135,0.027-2.031,0.441-2.031,1.709v0.4h1.233v-0.322c0-0.578,0.413-0.754,0.928-0.779
		c0.525-0.025,1.558-0.055,2.283,0.025c0.663,0.07,1.087,0.309,1.087,1.023v0.645h-3.412c-0.793,0-1.893,0.414-2.066,1.301
		c-0.063,0.334-0.109,0.682-0.082,1.129c0.082,1.139,0.66,1.896,1.853,1.959c0.7,0.041,1.504,0.051,2.188,0.041
		c0.661-0.016,1.279-0.176,1.828-0.512C80.114,49.48,80.599,49.656,81,49.656z M79.537,48.139c-0.498,0.363-1.101,0.469-1.744,0.484
		c-0.554,0.012-1.086,0.025-1.668-0.016c-0.591-0.035-0.924-0.318-0.952-0.873c-0.013-0.229-0.013-0.506,0.015-0.777
		c0.05-0.484,0.56-0.725,1.101-0.725h3.248V48.139z"/>
	<path fill="#0C3178" d="M90.159,42.594c-1.263-0.107-2.766-0.229-3.876,0.498v-0.539h-1.158v7.104h1.158V44.35
		c0.412-0.428,0.941-0.684,1.501-0.748c0.526-0.057,1.316-0.08,1.838-0.043c0.7,0.057,1.235,0.5,1.235,1.227v4.871h1.172v-5.021
		C92.029,43.576,91.219,42.689,90.159,42.594z"/>
	<path fill="#0C3178" d="M95.779,44.35c0.413-0.428,0.939-0.684,1.506-0.748c0.523-0.057,1.313-0.08,1.838-0.043
		c0.699,0.057,1.234,0.5,1.234,1.227v4.871h1.168v-5.021c0-1.059-0.804-1.945-1.868-2.041c-1.258-0.107-2.762-0.229-3.878,0.498
		v-0.539h-1.154v7.104h1.154V44.35z"/>
	<path fill="#0C3178" d="M112.353,48.514c0.054-0.146,0.144-0.279,0.175-0.83l-1.1,0.008c-0.097,0.906-0.208,0.943-1.279,0.971
		c-0.713,0.012-1.582,0.012-2.221-0.027c-0.558-0.041-0.923-0.186-1.134-0.467c-0.311-0.418-0.257-1.088-0.257-1.602h6.055v-1.504
		c0-1.383-0.75-2.305-2.176-2.453c-0.522-0.057-1.501-0.098-2.229-0.07c-1.571,0.055-2.672,0.662-2.781,2.391
		c-0.052,0.859-0.013,1.813,0.013,2.605c0.029,0.684,0.283,1.154,0.672,1.488c1.034,0.885,2.901,0.617,4.15,0.605
		C111.131,49.629,111.965,49.426,112.353,48.514z M106.567,44.93c0.09-1.1,0.68-1.328,1.66-1.371
		c0.725-0.025,1.801,0.018,2.405,0.137c0.548,0.121,0.75,0.654,0.778,1.168c0.015,0.24,0,0.479,0,0.709h-4.861
		C106.567,45.359,106.549,45.145,106.567,44.93z"/>
	<path fill="#0C3178" d="M117.658,43.416v-0.863h-1.199v7.102h1.199v-4.779c0.386-0.859,1.045-1.299,1.986-1.299h1.585v-1.023
		h-1.734C118.796,42.553,118.068,42.832,117.658,43.416z"/>
	<path fill="#0C3178" d="M137.633,46.461c0,1.195-0.555,1.959-1.829,2.043c-0.715,0.039-2.102,0.023-2.758-0.055
		c-1.349-0.174-1.617-1.063-1.701-2.254c-0.068-0.996-0.078-2.406,0.027-3.389c0.165-1.477,0.729-1.982,2.195-2.025
		c0.688-0.027,1.562-0.027,2.369,0.029c1.01,0.066,1.639,0.803,1.639,1.799v0.061h1.172v-0.115c0-1.641-1.034-2.674-2.677-2.752
		c-0.861-0.041-1.776-0.057-2.625-0.029c-2.073,0.07-3.134,0.928-3.272,3.074c-0.063,1.049-0.052,2.162,0,3.195
		c0.099,1.934,0.741,3.307,2.896,3.467c0.808,0.068,1.966,0.043,2.586,0.014c1.087-0.053,1.951-0.336,2.502-0.967
		c0.418-0.484,0.646-1.17,0.646-2.066v-0.109h-1.17V46.461z"/>
	<path fill="#0C3178" d="M147.356,42.379c-0.554-0.055-1.2-0.037-1.766-0.014c-0.702,0.041-1.391,0.146-1.968,0.482v-3.063h-1.197
		v9.725h1.197v-5.387c0.502-0.512,1.08-0.682,1.856-0.725c0.465-0.027,1-0.027,1.457,0.01c0.782,0.074,1.563,0.408,1.563,1.307
		v4.795h1.199v-4.311C149.698,43.467,149.131,42.555,147.356,42.379z"/>
	<path fill="#0C3178" d="M160.063,47.949v-5.555h-1.16v5.262c-0.388,0.498-0.913,0.711-1.506,0.793
		c-0.443,0.053-0.999,0.053-1.427,0.039c-1.077-0.053-1.45-0.441-1.45-1.518v-4.576h-1.149v4.807c0,1.393,0.862,2.215,2.234,2.322
		c0.675,0.055,1.388,0.014,2.062-0.057c0.405-0.039,1.022-0.174,1.468-0.588c0.252,0.361,0.74,0.631,1.143,0.631h0.673v-1.035
		h-0.394C160.37,48.475,160.063,48.338,160.063,47.949z"/>
	<path fill="#0C3178" d="M165.489,43.264v-0.857h-1.199v7.104h1.199v-4.781c0.389-0.861,1.05-1.301,1.995-1.301h1.584v-1.021h-1.734
		C166.634,42.406,165.904,42.689,165.489,43.264z"/>
	<path fill="#0C3178" d="M179.364,44.918c0-0.537-0.118-1.088-0.443-1.533c-0.362-0.506-0.968-0.873-1.897-0.926
		c-0.794-0.039-1.682-0.08-2.479,0.014c-1.33,0.162-2.271,0.848-2.376,2.297c-0.057,0.727-0.1,1.506-0.02,2.268
		c0.162,1.467,0.771,2.355,2.356,2.486c0.732,0.057,1.656,0.08,2.327,0.041c0.825-0.055,1.418-0.309,1.834-0.701
		c0.483-0.455,0.698-1.061,0.698-1.662l-0.007-0.133l-1.107-0.014v-0.018c0,0.873-0.431,1.424-1.373,1.488
		c-0.742,0.057-1.414,0.057-2.18-0.021c-0.943-0.109-1.323-0.74-1.377-1.627c-0.04-0.578-0.079-1.344-0.011-1.902
		c0.147-1.16,0.71-1.467,1.79-1.506c0.537-0.031,1.29-0.043,1.887,0.039c0.783,0.102,1.223,0.656,1.246,1.418h1.109L179.364,44.918z
		"/>
	<path fill="#0C3178" d="M178.235,44.986c0-0.023-0.003-0.041-0.003-0.061l0,0L178.235,44.986z"/>
	<path fill="#0C3178" d="M187.517,42.379c-0.552-0.055-1.199-0.037-1.763-0.014c-0.699,0.041-1.39,0.146-1.964,0.482v-3.063h-1.2
		v9.725h1.2v-5.387c0.493-0.512,1.074-0.682,1.854-0.725c0.458-0.027,0.996-0.027,1.455,0.01c0.78,0.074,1.56,0.408,1.56,1.307
		v4.795h1.198v-4.311C189.858,43.467,189.291,42.555,187.517,42.379z"/>
</g>
</svg>
