<svg width="88" height="90" viewBox="0 0 88 90" fill="none" xmlns="http://www.w3.org/2000/svg">
<g clip-path="url(#clip0_5010_67976)">
<path d="M75.1106 76.4952C92.2935 59.3123 92.2935 31.4533 75.1106 14.2704C57.9277 -2.91249 30.0687 -2.91249 12.8858 14.2704C-4.29707 31.4533 -4.29707 59.3123 12.8858 76.4952C30.0687 93.6781 57.9277 93.6781 75.1106 76.4952Z" fill="#FCE8E3"/>
<path d="M55.7457 39.6367H32.4688V65.9327H55.7457V39.6367Z" fill="#E2988F"/>
<path d="M81.7067 68.2815C69.284 62.7401 55.7419 60.7773 55.7419 60.7773C49.5305 67.2567 37.9511 67.3434 32.4649 60.7773C32.4649 60.7773 18.9228 62.7401 6.5 68.2815C14.2248 80.9565 28.1768 89.4302 44.1073 89.4302C60.0378 89.4302 73.9898 80.9644 81.7067 68.2815Z" fill="#D85D63"/>
<path d="M43.774 68.6514C43.703 68.6514 43.6242 68.6514 43.5533 68.6514C37.5389 68.5884 32.4705 65.9399 29.6328 61.3759L30.1373 61.0606C32.8567 65.4433 37.7518 67.9893 43.5612 68.0524C43.6321 68.0524 43.703 68.0524 43.774 68.0524C49.7647 68.0524 55.2115 65.3802 58.0255 61.0527L58.5221 61.3759C55.5977 65.8768 49.9617 68.6514 43.774 68.6514Z" fill="#B73D49"/>
<path d="M66.1157 25.14C66.1157 37.2948 59.4393 53.0834 44.6675 52.7839C28.7764 52.7839 22.7385 38.7688 22.7385 26.614C19.9559 18.7158 23.2981 10.1396 29.0917 8.56315C32.7098 2.51729 39 0.570312 45.3218 0.570312C57.4844 0.570312 69.4737 9.50904 66.1157 25.14Z" fill="#4C224B"/>
<path d="M66.0837 26.8342C64.8461 23.8783 62.3158 25.3287 62.3158 25.3287C62.844 13.7336 56.9321 5.68555 44.1073 5.68555C31.2825 5.68555 25.4416 15.3416 25.8988 25.3287C25.8988 25.3287 23.3685 23.8783 22.131 26.8342C20.8934 29.7902 23.1557 36.7346 24.5509 38.9417C25.9461 41.1488 28.0665 40.2187 28.0665 40.2187C28.0665 40.2187 28.5867 45.295 29.2331 47.0134C29.8794 48.7318 37.1944 56.6537 39.3463 57.8597C42.1682 59.5229 46.3223 59.5229 48.8605 57.8597C51.0124 56.6458 58.3273 48.7318 58.9737 47.0134C59.62 45.295 60.1245 40.1241 60.1245 40.1241C60.1245 40.1241 62.2528 41.1488 63.6559 38.9417C65.0589 36.7346 67.3212 29.7981 66.0837 26.8342Z" fill="#E2988F"/>
<path d="M44.2041 58.2551C38.978 58.2551 35.1077 54.6371 32.6562 51.9097L33.0977 51.5156C35.4782 54.1563 39.2145 57.664 44.2041 57.664C48.9178 57.664 52.3546 54.5583 55.0977 51.5156L55.5391 51.9097C52.7093 55.047 49.1543 58.2551 44.2041 58.2551Z" fill="#C46966"/>
<path d="M28.0016 37.0142L27.4141 37.0801L27.77 40.2527L28.3575 40.1868L28.0016 37.0142Z" fill="#C46966"/>
<path d="M60.1584 37.0127L59.8359 40.0938L60.4239 40.1553L60.7464 37.0742L60.1584 37.0127Z" fill="#C46966"/>
<path d="M23.7678 33.4971C23.6496 33.0636 22.6406 29.2011 24.0358 28.137C24.5009 27.8375 24.8792 27.8611 25.1236 27.9399C25.833 28.1685 26.1877 29.0514 26.2271 29.1538L25.6754 29.3667C25.5965 29.1696 25.3128 28.6257 24.9344 28.5075C24.761 28.4523 24.5797 28.4917 24.3748 28.6257C23.5786 29.2327 23.9254 31.8418 24.3353 33.3473L23.7678 33.4971Z" fill="#C46966"/>
<path d="M64.4359 33.4962L63.8684 33.3385C64.2782 31.8409 64.6251 29.2239 63.8132 28.6091C63.624 28.4908 63.4427 28.4514 63.2693 28.5066C62.8909 28.6248 62.6072 29.1687 62.5283 29.3658L61.9766 29.1529C62.016 29.0505 62.3707 28.1755 63.0801 27.939C63.3166 27.8602 63.7028 27.8287 64.1442 28.1203C65.5631 29.1924 64.5541 33.0548 64.4359 33.4962Z" fill="#C46966"/>
<path d="M25.8984 25.3298C26.9941 21.5462 28.6731 18.2513 31.3058 15.7604C38.7075 24.3839 47.8275 30.0041 62.3155 25.3298L63.4348 21.6565C63.4348 21.6565 61.6849 13.8686 61.6849 13.5849C61.6849 13.309 55.9543 7.96465 55.9543 7.96465L48.4975 4.90625H40.82L34.7032 6.63251L29.3037 11.1965L25.8984 18.0385V25.3298Z" fill="#4C224B"/>
</g>
<defs>
<clipPath id="clip0_5010_67976">
<rect width="88" height="88.8592" fill="white" transform="translate(0 0.570312)"/>
</clipPath>
</defs>
</svg>
