<svg width="24" height="24" viewBox="0 0 24 24" fill="none" xmlns="http://www.w3.org/2000/svg">
<g clip-path="url(#clip0_6843_39382)">
<path d="M15 0.75C15 0.551088 14.921 0.360322 14.7803 0.21967C14.6397 0.0790176 14.4489 0 14.25 0L9.75 0C9.55109 0 9.36032 0.0790176 9.21967 0.21967C9.07902 0.360322 9 0.551088 9 0.75C9 0.948912 8.92098 1.13968 8.78033 1.28033C8.63968 1.42098 8.44891 1.5 8.25 1.5C8.05109 1.5 7.86032 1.57902 7.71967 1.71967C7.57902 1.86032 7.5 2.05109 7.5 2.25V3C7.5 3.19891 7.57902 3.38968 7.71967 3.53033C7.86032 3.67098 8.05109 3.75 8.25 3.75H15.75C15.9489 3.75 16.1397 3.67098 16.2803 3.53033C16.421 3.38968 16.5 3.19891 16.5 3V2.25C16.5 2.05109 16.421 1.86032 16.2803 1.71967C16.1397 1.57902 15.9489 1.5 15.75 1.5C15.5511 1.5 15.3603 1.42098 15.2197 1.28033C15.079 1.13968 15 0.948912 15 0.75Z" fill="#3B4044"/>
<path d="M6.1275 1.5H5.25C4.65326 1.5 4.08097 1.73705 3.65901 2.15901C3.23705 2.58097 3 3.15326 3 3.75V21.75C3 22.3467 3.23705 22.919 3.65901 23.341C4.08097 23.7629 4.65326 24 5.25 24H18.75C19.3467 24 19.919 23.7629 20.341 23.341C20.7629 22.919 21 22.3467 21 21.75V3.75C21 3.15326 20.7629 2.58097 20.341 2.15901C19.919 1.73705 19.3467 1.5 18.75 1.5H17.8725C17.955 1.734 18 1.9875 18 2.25V3C18 3.59674 17.7629 4.16903 17.341 4.59099C16.919 5.01295 16.3467 5.25 15.75 5.25H8.25C7.65326 5.25 7.08097 5.01295 6.65901 4.59099C6.23705 4.16903 6 3.59674 6 3V2.25C6 1.9875 6.045 1.734 6.1275 1.5ZM15 10.5C15 10.1022 15.158 9.72064 15.4393 9.43934C15.7206 9.15804 16.1022 9 16.5 9C16.8978 9 17.2794 9.15804 17.5607 9.43934C17.842 9.72064 18 10.1022 18 10.5V18C18 18.3978 17.842 18.7794 17.5607 19.0607C17.2794 19.342 16.8978 19.5 16.5 19.5C16.1022 19.5 15.7206 19.342 15.4393 19.0607C15.158 18.7794 15 18.3978 15 18V10.5ZM6 16.5C6 16.1022 6.15804 15.7206 6.43934 15.4393C6.72064 15.158 7.10218 15 7.5 15C7.89782 15 8.27936 15.158 8.56066 15.4393C8.84196 15.7206 9 16.1022 9 16.5V18C9 18.3978 8.84196 18.7794 8.56066 19.0607C8.27936 19.342 7.89782 19.5 7.5 19.5C7.10218 19.5 6.72064 19.342 6.43934 19.0607C6.15804 18.7794 6 18.3978 6 18V16.5ZM12 12C12.3978 12 12.7794 12.158 13.0607 12.4393C13.342 12.7206 13.5 13.1022 13.5 13.5V18C13.5 18.3978 13.342 18.7794 13.0607 19.0607C12.7794 19.342 12.3978 19.5 12 19.5C11.6022 19.5 11.2206 19.342 10.9393 19.0607C10.658 18.7794 10.5 18.3978 10.5 18V13.5C10.5 13.1022 10.658 12.7206 10.9393 12.4393C11.2206 12.158 11.6022 12 12 12Z" fill="black"/>
</g>
<defs>
<clipPath id="clip0_6843_39382">
<rect width="24" height="24" fill="white"/>
</clipPath>
</defs>
</svg>
