<svg width="24" height="24" viewBox="0 0 24 24" fill="none" xmlns="http://www.w3.org/2000/svg">
<path d="M12.0015 10.6534C13.754 10.6534 15.1748 9.25054 15.1748 7.52005C15.1748 5.78956 13.754 4.38672 12.0015 4.38672C10.2489 4.38672 8.82812 5.78956 8.82812 7.52005C8.82812 9.25054 10.2489 10.6534 12.0015 10.6534Z" fill="#3764AC"/>
<path d="M7.18538 7.8333H7.50538V7.54664C7.50732 6.71304 7.7425 5.89661 8.18431 5.18972C8.62612 4.48282 9.25693 3.91367 10.0054 3.54664C9.7838 3.03635 9.42815 2.59559 8.9762 2.2712C8.52425 1.9468 7.99287 1.75087 7.43851 1.70421C6.88415 1.65756 6.3275 1.76192 5.82769 2.00622C5.32788 2.25052 4.90356 2.62563 4.59982 3.09171C4.29607 3.55779 4.12423 4.09744 4.10255 4.65334C4.08087 5.20924 4.21016 5.76063 4.47669 6.24895C4.74322 6.73727 5.13703 7.14429 5.6163 7.42677C6.09557 7.70925 6.6424 7.85665 7.19871 7.8533L7.18538 7.8333ZM16.5054 7.51997V7.80664H16.8254C17.3743 7.80113 17.9115 7.64775 18.3806 7.36263C18.8497 7.07752 19.2332 6.67122 19.4909 6.18651C19.7485 5.70179 19.8707 5.15658 19.8446 4.60827C19.8185 4.05996 19.6451 3.52883 19.3426 3.07078C19.0401 2.61273 18.6196 2.2447 18.1256 2.00544C17.6316 1.76617 17.0822 1.66452 16.5352 1.71117C15.9883 1.75783 15.464 1.95107 15.0176 2.27056C14.5713 2.59005 14.2193 3.02397 13.9987 3.52664C14.7474 3.89223 15.3789 4.45995 15.8219 5.16562C16.2648 5.8713 16.5016 6.6868 16.5054 7.51997ZM14.8587 10.9666C16.1842 11.229 17.4659 11.6779 18.6654 12.3C18.8344 12.3928 18.9874 12.5121 19.1187 12.6533H22.6654V10.3733C22.666 10.2859 22.6428 10.1999 22.5981 10.1247C22.5535 10.0495 22.4891 9.98793 22.412 9.94664C20.6841 9.04285 18.762 8.57376 16.812 8.57997H16.372C16.141 9.51912 15.6096 10.3571 14.8587 10.9666ZM4.35204 13.9466C4.35083 13.6109 4.4415 13.2812 4.61425 12.9933C4.78699 12.7054 5.03522 12.4702 5.33204 12.3133C6.53157 11.6912 7.8132 11.2423 9.13871 10.98C8.39142 10.3757 7.86039 9.54519 7.62538 8.61331H7.18538C5.2354 8.6071 3.31328 9.07618 1.58538 9.97997C1.50829 10.0213 1.44395 10.0828 1.3993 10.158C1.35465 10.2332 1.3314 10.3192 1.33204 10.4066V14.6666H4.35204V13.9466ZM14.3054 17.7933H18.2787V18.7266H14.3054V17.7933Z" fill="#3764AC"/>
<path d="M21.8742 14.1734H17.2942V13.5068C17.2942 13.33 17.2239 13.1604 17.0989 13.0354C16.9739 12.9103 16.8043 12.8401 16.6275 12.8401C16.4507 12.8401 16.2811 12.9103 16.1561 13.0354C16.0311 13.1604 15.9608 13.33 15.9608 13.5068V14.1734H14.6675V12.2868C13.7904 12.1026 12.8971 12.0066 12.0008 12.0001C9.89669 11.9913 7.82259 12.4996 5.96085 13.4801C5.87792 13.5231 5.8085 13.5882 5.76027 13.6682C5.71203 13.7482 5.68685 13.84 5.68751 13.9334V17.6734H10.4275V21.7334C10.4275 21.9103 10.4978 22.0798 10.6228 22.2048C10.7478 22.3299 10.9174 22.4001 11.0942 22.4001H21.8742C22.051 22.4001 22.2206 22.3299 22.3456 22.2048C22.4706 22.0798 22.5408 21.9103 22.5408 21.7334V14.8401C22.5408 14.6633 22.4706 14.4937 22.3456 14.3687C22.2206 14.2437 22.051 14.1734 21.8742 14.1734ZM21.2075 21.0801H11.7608V15.5068H15.9608V16.1134C15.9608 16.2903 16.0311 16.4598 16.1561 16.5848C16.2811 16.7099 16.4507 16.7801 16.6275 16.7801C16.8043 16.7801 16.9739 16.7099 17.0989 16.5848C17.2239 16.4598 17.2942 16.2903 17.2942 16.1134V15.5068H21.2075V21.0801Z" fill="#3764AC"/>
</svg>
