<svg width="24" height="24" viewBox="0 0 24 24" fill="none" xmlns="http://www.w3.org/2000/svg">
<path d="M12.0015 10.6534C13.754 10.6534 15.1748 9.25054 15.1748 7.52005C15.1748 5.78956 13.754 4.38672 12.0015 4.38672C10.2489 4.38672 8.82812 5.78956 8.82812 7.52005C8.82812 9.25054 10.2489 10.6534 12.0015 10.6534Z" fill="#3B4044"/>
<path d="M7.18928 7.8333H7.50928V7.54664C7.51123 6.71304 7.7464 5.89661 8.18821 5.18972C8.63002 4.48282 9.26083 3.91367 10.0093 3.54664C9.78771 3.03635 9.43206 2.59559 8.98011 2.2712C8.52816 1.9468 7.99678 1.75087 7.44242 1.70421C6.88806 1.65756 6.33141 1.76192 5.83159 2.00622C5.33178 2.25052 4.90747 2.62563 4.60372 3.09171C4.29998 3.55779 4.12814 4.09744 4.10646 4.65334C4.08478 5.20924 4.21407 5.76063 4.4806 6.24895C4.74712 6.73727 5.14094 7.14429 5.62021 7.42677C6.09948 7.70925 6.64631 7.85665 7.20262 7.8533L7.18928 7.8333ZM16.5093 7.51997V7.80664H16.8293C17.3782 7.80113 17.9155 7.64775 18.3845 7.36263C18.8536 7.07752 19.2372 6.67122 19.4948 6.18651C19.7524 5.70179 19.8746 5.15658 19.8485 4.60827C19.8224 4.05996 19.649 3.52883 19.3465 3.07078C19.044 2.61273 18.6236 2.2447 18.1295 2.00544C17.6355 1.76617 17.0861 1.66452 16.5391 1.71117C15.9922 1.75783 15.4679 1.95107 15.0215 2.27056C14.5752 2.59005 14.2232 3.02397 14.0026 3.52664C14.7513 3.89223 15.3828 4.45995 15.8258 5.16562C16.2687 5.8713 16.5055 6.6868 16.5093 7.51997ZM14.8626 10.9666C16.1881 11.229 17.4698 11.6779 18.6693 12.3C18.8383 12.3928 18.9913 12.5121 19.1226 12.6533H22.6693V10.3733C22.6699 10.2859 22.6467 10.1999 22.602 10.1247C22.5574 10.0495 22.493 9.98793 22.416 9.94664C20.6881 9.04285 18.7659 8.57376 16.816 8.57997H16.3759C16.1449 9.51912 15.6135 10.3571 14.8626 10.9666ZM4.35595 13.9466C4.35473 13.6109 4.44541 13.2812 4.61815 12.9933C4.7909 12.7054 5.03913 12.4702 5.33595 12.3133C6.53547 11.6912 7.81711 11.2423 9.14262 10.98C8.39533 10.3757 7.8643 9.54519 7.62928 8.61331H7.18928C5.2393 8.6071 3.31718 9.07618 1.58928 9.97997C1.5122 10.0213 1.44785 10.0828 1.40321 10.158C1.35856 10.2332 1.3353 10.3192 1.33595 10.4066V14.6666H4.35595V13.9466ZM14.3093 17.7933H18.2826V18.7266H14.3093V17.7933Z" fill="#3B4044"/>
<path d="M21.8742 14.1734H17.2942V13.5068C17.2942 13.33 17.2239 13.1604 17.0989 13.0354C16.9739 12.9103 16.8043 12.8401 16.6275 12.8401C16.4507 12.8401 16.2811 12.9103 16.1561 13.0354C16.0311 13.1604 15.9608 13.33 15.9608 13.5068V14.1734H14.6675V12.2868C13.7904 12.1026 12.8971 12.0066 12.0008 12.0001C9.89669 11.9913 7.82259 12.4996 5.96085 13.4801C5.87792 13.5231 5.8085 13.5882 5.76027 13.6682C5.71203 13.7482 5.68685 13.84 5.68751 13.9334V17.6734H10.4275V21.7334C10.4275 21.9103 10.4978 22.0798 10.6228 22.2048C10.7478 22.3299 10.9174 22.4001 11.0942 22.4001H21.8742C22.051 22.4001 22.2206 22.3299 22.3456 22.2048C22.4706 22.0798 22.5408 21.9103 22.5408 21.7334V14.8401C22.5408 14.6633 22.4706 14.4937 22.3456 14.3687C22.2206 14.2437 22.051 14.1734 21.8742 14.1734ZM21.2075 21.0801H11.7608V15.5068H15.9608V16.1134C15.9608 16.2903 16.0311 16.4598 16.1561 16.5848C16.2811 16.7099 16.4507 16.7801 16.6275 16.7801C16.8043 16.7801 16.9739 16.7099 17.0989 16.5848C17.2239 16.4598 17.2942 16.2903 17.2942 16.1134V15.5068H21.2075V21.0801Z" fill="#3B4044"/>
</svg>
