<svg width="24" height="24" viewBox="0 0 24 24" fill="none" xmlns="http://www.w3.org/2000/svg">
<path d="M18.2334 1.91406C19.1006 1.91406 19.874 2.79484 19.874 3.97797C19.874 5.16531 19.1006 6.04187 18.2334 6.04187C17.3662 6.04187 16.5928 5.16531 16.5928 3.97797C16.5928 2.79484 17.3662 1.91406 18.2334 1.91406ZM12.0037 1.91406C12.8662 1.91406 13.6444 2.79484 13.6444 3.97797C13.6444 5.16531 12.8662 6.04187 12.0037 6.04187C11.1365 6.04187 10.3584 5.16531 10.3584 3.97797C10.3584 2.79484 11.1365 1.91406 12.0037 1.91406ZM5.76936 1.91406C6.63655 1.91406 7.40999 2.79484 7.40999 3.97797C7.40999 5.16531 6.63655 6.04187 5.76936 6.04187C4.90217 6.04187 4.12452 5.16531 4.12452 3.97797C4.12452 2.79484 4.90217 1.91406 5.76936 1.91406ZM12.0037 7.02625C15.0037 7.12 17.535 7.12 20.5725 7.22313C22.0209 8.0575 22.6912 12.3325 22.649 13.8184L21.824 14.6481C21.4631 12.6419 21.0084 9.96531 20.2537 9.37V13.4762L20.4459 22.0872H19.4053L18.6225 13.4294H17.7787L16.9959 22.0872H15.9506L16.1475 13.4762L15.7725 9.32781H14.399L14.0615 13.4622L14.2584 22.0731H13.2131L12.4256 13.4153H11.5819L10.7944 22.0731H9.75373L9.95061 13.4622L9.60842 9.32781H8.23498L7.85998 13.4762L8.05686 22.0872H7.01155L6.22873 13.4294H5.38498L4.59327 22.0872H3.55264L3.74952 13.4762V9.37C2.99014 9.96531 2.53545 12.6419 2.17452 14.6481L1.34952 13.8184C1.30733 12.3325 1.98233 8.0575 3.42608 7.22313C6.47249 7.12 9.00374 7.12 12.0037 7.02625Z" fill="#3B4044"/>
</svg>
