<svg width="24" height="24" viewBox="0 0 24 24" fill="none" xmlns="http://www.w3.org/2000/svg">
<path d="M13.0593 0.96875L11.7353 3.00608C10.0266 1.62402 7.61291 1.19558 5.73716 1.57977C3.18449 2.10242 1.04188 4.40853 1.14833 7.74195C1.26055 11.2555 3.71287 13.8221 6.06505 15.9368C7.24115 16.994 8.44818 17.9564 9.34293 18.8212C11.1094 20.4179 11.9652 23.1509 11.9652 23.1509C11.9652 23.1509 13.1152 20.3617 14.5875 18.9522C15.5106 18.0756 16.7286 17.0955 17.9308 16.0024C20.3354 13.8159 22.8247 11.1258 22.7165 7.67652C22.7165 1.94333 17.0352 2.00403 14.8469 3.99706C15.7527 3.51772 16.7276 3.41595 17.6031 3.61203C19.2108 3.97217 20.5418 5.29648 20.6187 7.74209C20.6919 10.0821 18.7863 12.34 16.4885 14.429C15.3397 15.4734 14.1564 16.4186 13.1452 17.3788C12.6082 17.889 12.3605 18.3404 11.9652 18.8692C11.5697 18.3075 11.3247 17.8349 10.7852 17.3134C8.19093 14.3622 4.06916 11.1783 3.90444 7.67647C3.87069 4.75991 7.28427 3.99191 9.1191 5.28397L6.96641 6.46794C10.1255 6.99031 12.8139 8.21919 15.6663 10.0111L13.0593 0.96875H13.0593Z" fill="#3764AC"/>
</svg>
