<svg width="21" height="20" viewBox="0 0 21 20" fill="none" xmlns="http://www.w3.org/2000/svg">
<path fill-rule="evenodd" clip-rule="evenodd" d="M6.71953 0.888984C7.69703 0.843984 8.0087 0.833984 10.4987 0.833984C12.9887 0.833984 13.3004 0.844818 14.277 0.888984C15.2537 0.933151 15.9204 1.08898 16.5037 1.31482C17.1145 1.54565 17.6687 1.90648 18.127 2.37315C18.5937 2.83065 18.9537 3.38398 19.1837 3.99565C19.4104 4.57898 19.5654 5.24565 19.6104 6.22065C19.6554 7.19982 19.6654 7.51148 19.6654 10.0007C19.6654 12.4907 19.6545 12.8023 19.6104 13.7798C19.5662 14.7548 19.4104 15.4215 19.1837 16.0048C18.9537 16.6166 18.5931 17.1708 18.127 17.629C17.6687 18.0957 17.1145 18.4557 16.5037 18.6857C15.9204 18.9123 15.2537 19.0673 14.2787 19.1123C13.3004 19.1573 12.9887 19.1673 10.4987 19.1673C8.0087 19.1673 7.69703 19.1565 6.71953 19.1123C5.74453 19.0682 5.07786 18.9123 4.49453 18.6857C3.8828 18.4556 3.32855 18.095 2.87036 17.629C2.40401 17.1712 2.04313 16.6172 1.81286 16.0057C1.58703 15.4223 1.43203 14.7557 1.38703 13.7807C1.34203 12.8015 1.33203 12.4898 1.33203 10.0007C1.33203 7.51065 1.34286 7.19898 1.38703 6.22232C1.4312 5.24565 1.58703 4.57898 1.81286 3.99565C2.04347 3.38405 2.40463 2.83008 2.8712 2.37232C3.32873 1.90607 3.88242 1.54519 4.4937 1.31482C5.07703 1.08898 5.7437 0.933984 6.7187 0.888984H6.71953ZM14.2029 2.53898C13.2362 2.49482 12.9462 2.48565 10.4987 2.48565C8.0512 2.48565 7.7612 2.49482 6.79453 2.53898C5.90036 2.57982 5.41536 2.72898 5.09203 2.85482C4.66453 3.02148 4.3587 3.21898 4.03786 3.53982C3.73374 3.83569 3.49968 4.19589 3.35286 4.59398C3.22703 4.91732 3.07786 5.40232 3.03703 6.29648C2.99286 7.26315 2.9837 7.55315 2.9837 10.0007C2.9837 12.4482 2.99286 12.7382 3.03703 13.7048C3.07786 14.599 3.22703 15.084 3.35286 15.4073C3.49953 15.8048 3.7337 16.1657 4.03786 16.4615C4.3337 16.7657 4.69453 16.9998 5.09203 17.1465C5.41536 17.2723 5.90036 17.4215 6.79453 17.4623C7.7612 17.5065 8.05036 17.5157 10.4987 17.5157C12.947 17.5157 13.2362 17.5065 14.2029 17.4623C15.097 17.4215 15.582 17.2723 15.9054 17.1465C16.3329 16.9798 16.6387 16.7823 16.9595 16.4615C17.2637 16.1657 17.4979 15.8048 17.6445 15.4073C17.7704 15.084 17.9195 14.599 17.9604 13.7048C18.0045 12.7382 18.0137 12.4482 18.0137 10.0007C18.0137 7.55315 18.0045 7.26315 17.9604 6.29648C17.9195 5.40232 17.7704 4.91732 17.6445 4.59398C17.4779 4.16648 17.2804 3.86065 16.9595 3.53982C16.6636 3.23571 16.3035 3.00166 15.9054 2.85482C15.582 2.72898 15.097 2.57982 14.2029 2.53898ZM9.32787 12.8265C9.98175 13.0987 10.7098 13.1354 11.3878 12.9304C12.0658 12.7254 12.6515 12.2914 13.045 11.7025C13.4386 11.1136 13.6154 10.4064 13.5454 9.70157C13.4754 8.99677 13.1629 8.33813 12.6612 7.83815C12.3414 7.51855 11.9547 7.27383 11.529 7.12161C11.1032 6.96939 10.6491 6.91345 10.1991 6.95783C9.74917 7.00221 9.31466 7.1458 8.92687 7.37826C8.53908 7.61072 8.20765 7.92627 7.95645 8.30219C7.70525 8.67812 7.54052 9.10506 7.47413 9.55229C7.40773 9.99951 7.44132 10.4559 7.57248 10.8886C7.70364 11.3213 7.9291 11.7195 8.23263 12.0546C8.53617 12.3897 8.91022 12.6533 9.32787 12.8265ZM7.16703 6.66898C7.60455 6.23146 8.12396 5.8844 8.69561 5.64762C9.26726 5.41083 9.87995 5.28896 10.4987 5.28896C11.1174 5.28896 11.7301 5.41083 12.3018 5.64762C12.8734 5.8844 13.3928 6.23146 13.8304 6.66898C14.2679 7.10651 14.6149 7.62592 14.8517 8.19757C15.0885 8.76921 15.2104 9.3819 15.2104 10.0007C15.2104 10.6194 15.0885 11.2321 14.8517 11.8037C14.6149 12.3754 14.2679 12.8948 13.8304 13.3323C12.9468 14.2159 11.7483 14.7123 10.4987 14.7123C9.24908 14.7123 8.05064 14.2159 7.16703 13.3323C6.28342 12.4487 5.78701 11.2503 5.78701 10.0007C5.78701 8.75103 6.28342 7.5526 7.16703 6.66898ZM16.2554 5.99065C16.3638 5.88838 16.4506 5.76539 16.5106 5.62896C16.5707 5.49254 16.6027 5.34546 16.6049 5.19643C16.6071 5.04739 16.5793 4.89944 16.5233 4.76133C16.4672 4.62321 16.3841 4.49774 16.2787 4.39235C16.1733 4.28696 16.0478 4.20378 15.9097 4.14775C15.7716 4.09172 15.6236 4.06396 15.4746 4.06614C15.3256 4.06831 15.1785 4.10036 15.0421 4.1604C14.9056 4.22043 14.7826 4.30723 14.6804 4.41565C14.4815 4.62651 14.3726 4.90659 14.3768 5.19643C14.381 5.48627 14.498 5.76305 14.703 5.96802C14.908 6.17299 15.1847 6.29001 15.4746 6.29423C15.7644 6.29846 16.0445 6.18956 16.2554 5.99065Z" fill="white"/>
</svg>
