<svg width="24" height="24" viewBox="0 0 24 24" fill="none" xmlns="http://www.w3.org/2000/svg">
<path d="M3.72807 11C3.34474 11 3.05741 10.8373 2.86608 10.512C2.67408 10.1873 2.66974 9.85833 2.85308 9.525L6.15307 3.575C6.25307 3.39167 6.37807 3.25833 6.52807 3.175C6.67807 3.09167 6.84474 3.05 7.02807 3.05C7.21141 3.05 7.37807 3.09167 7.52807 3.175C7.67807 3.25833 7.80307 3.39167 7.90307 3.575L11.2031 9.525C11.3864 9.85833 11.3824 10.1873 11.1911 10.512C10.9991 10.8373 10.7114 11 10.3281 11H3.72807ZM7.02807 21C5.92807 21 4.98641 20.6083 4.20307 19.825C3.41974 19.0417 3.02808 18.1 3.02808 17C3.02808 15.8833 3.41974 14.9373 4.20307 14.162C4.98641 13.3873 5.92807 13 7.02807 13C8.12807 13 9.06974 13.3917 9.85307 14.175C10.6364 14.9583 11.0281 15.9 11.0281 17C11.0281 18.1 10.6364 19.0417 9.85307 19.825C9.06974 20.6083 8.12807 21 7.02807 21ZM14.0281 21C13.7447 21 13.5071 20.904 13.3151 20.712C13.1237 20.5207 13.0281 20.2833 13.0281 20V14C13.0281 13.7167 13.1237 13.479 13.3151 13.287C13.5071 13.0957 13.7447 13 14.0281 13H20.0281C20.3114 13 20.5491 13.0957 20.7411 13.287C20.9324 13.479 21.0281 13.7167 21.0281 14V20C21.0281 20.2833 20.9324 20.5207 20.7411 20.712C20.5491 20.904 20.3114 21 20.0281 21H14.0281ZM17.0281 10.625C16.8947 10.625 16.7614 10.604 16.6281 10.562C16.4947 10.5207 16.3781 10.4583 16.2781 10.375C15.3614 9.60833 14.6237 8.975 14.0651 8.475C13.5071 7.975 13.0781 7.54167 12.7781 7.175C12.4781 6.80833 12.2781 6.475 12.1781 6.175C12.0781 5.875 12.0281 5.54167 12.0281 5.175C12.0281 4.425 12.2904 3.79167 12.8151 3.275C13.3404 2.75833 13.9947 2.5 14.7781 2.5C15.2281 2.5 15.6491 2.604 16.0411 2.812C16.4324 3.02067 16.7614 3.30833 17.0281 3.675C17.2947 3.30833 17.6241 3.02067 18.0161 2.812C18.4074 2.604 18.8281 2.5 19.2781 2.5C20.0614 2.5 20.7157 2.75833 21.2411 3.275C21.7657 3.79167 22.0281 4.425 22.0281 5.175C22.0281 5.525 21.9824 5.85 21.8911 6.15C21.7991 6.45 21.6031 6.78333 21.3031 7.15C21.0031 7.51667 20.5741 7.954 20.0161 8.462C19.4574 8.97067 18.7197 9.60833 17.8031 10.375C17.7031 10.4583 17.5824 10.5207 17.4411 10.562C17.2991 10.604 17.1614 10.625 17.0281 10.625Z" fill="#3764AC"/>
</svg>
