<svg width="24" height="24" viewBox="0 0 24 24" fill="none" xmlns="http://www.w3.org/2000/svg">
<path d="M3.72417 11C3.34084 11 3.0535 10.8373 2.86217 10.512C2.67017 10.1873 2.66584 9.85833 2.84917 9.525L6.14917 3.575C6.24917 3.39167 6.37417 3.25833 6.52417 3.175C6.67417 3.09167 6.84084 3.05 7.02417 3.05C7.2075 3.05 7.37417 3.09167 7.52417 3.175C7.67417 3.25833 7.79917 3.39167 7.89917 3.575L11.1992 9.525C11.3825 9.85833 11.3785 10.1873 11.1872 10.512C10.9952 10.8373 10.7075 11 10.3242 11H3.72417ZM7.02417 21C5.92417 21 4.9825 20.6083 4.19917 19.825C3.41584 19.0417 3.02417 18.1 3.02417 17C3.02417 15.8833 3.41584 14.9373 4.19917 14.162C4.9825 13.3873 5.92417 13 7.02417 13C8.12417 13 9.06583 13.3917 9.84917 14.175C10.6325 14.9583 11.0242 15.9 11.0242 17C11.0242 18.1 10.6325 19.0417 9.84917 19.825C9.06583 20.6083 8.12417 21 7.02417 21ZM14.0242 21C13.7408 21 13.5032 20.904 13.3112 20.712C13.1198 20.5207 13.0242 20.2833 13.0242 20V14C13.0242 13.7167 13.1198 13.479 13.3112 13.287C13.5032 13.0957 13.7408 13 14.0242 13H20.0242C20.3075 13 20.5452 13.0957 20.7372 13.287C20.9285 13.479 21.0242 13.7167 21.0242 14V20C21.0242 20.2833 20.9285 20.5207 20.7372 20.712C20.5452 20.904 20.3075 21 20.0242 21H14.0242ZM17.0242 10.625C16.8908 10.625 16.7575 10.604 16.6242 10.562C16.4908 10.5207 16.3742 10.4583 16.2742 10.375C15.3575 9.60833 14.6198 8.975 14.0612 8.475C13.5032 7.975 13.0742 7.54167 12.7742 7.175C12.4742 6.80833 12.2742 6.475 12.1742 6.175C12.0742 5.875 12.0242 5.54167 12.0242 5.175C12.0242 4.425 12.2865 3.79167 12.8112 3.275C13.3365 2.75833 13.9908 2.5 14.7742 2.5C15.2242 2.5 15.6452 2.604 16.0372 2.812C16.4285 3.02067 16.7575 3.30833 17.0242 3.675C17.2908 3.30833 17.6202 3.02067 18.0122 2.812C18.4035 2.604 18.8242 2.5 19.2742 2.5C20.0575 2.5 20.7118 2.75833 21.2372 3.275C21.7618 3.79167 22.0242 4.425 22.0242 5.175C22.0242 5.525 21.9785 5.85 21.8872 6.15C21.7952 6.45 21.5992 6.78333 21.2992 7.15C20.9992 7.51667 20.5702 7.954 20.0122 8.462C19.4535 8.97067 18.7158 9.60833 17.7992 10.375C17.6992 10.4583 17.5785 10.5207 17.4372 10.562C17.2952 10.604 17.1575 10.625 17.0242 10.625Z" fill="#3B4044"/>
</svg>
