<svg width="24" height="24" viewBox="0 0 24 24" fill="none" xmlns="http://www.w3.org/2000/svg">
<path d="M21 10C17.7495 10.1885 14.6233 11.3153 12 13.244C9.3767 11.3153 6.25053 10.1885 3 10V12.96C2.46868 12.9611 1.95953 13.1731 1.58448 13.5494C1.20944 13.9258 0.999206 14.4357 1 14.967V15.971C1 17.08 3 18.179 3 18.179V20.186C5.65601 20.3568 8.21747 21.2375 10.417 22.736C10.9724 23.1214 11.5012 23.5437 12 24C12.4988 23.5437 13.0276 23.1214 13.583 22.736C15.7825 21.2375 18.344 20.3568 21 20.186V17.978C21.5313 17.9769 22.0405 17.7649 22.4155 17.3886C22.7906 17.0122 23.0008 16.5023 23 15.971V14.967C23.0008 14.4357 22.7906 13.9258 22.4155 13.5494C22.0405 13.1731 21.5313 12.9611 21 12.96V10ZM12 21.422C9.92599 19.902 7.53146 18.8772 5 18.426V12.276C6.94008 12.6668 8.78207 13.4428 10.417 14.558C10.9724 14.9434 11.5012 15.3657 12 15.822C12.4988 15.3657 13.0276 14.9434 13.583 14.558C15.2179 13.4424 17.0598 12.6661 19 12.275V18.426C16.4685 18.8772 14.074 19.902 12 21.422ZM11 8H13V9H11V8ZM11 4H13V5H11V4Z" fill="#3764AC"/>
<path d="M10.9978 9.99979H12.9978V10.9998H10.9978V9.99979ZM8.99782 4.99979C9.26304 4.99979 9.5174 4.89443 9.70493 4.7069C9.89247 4.51936 9.99782 4.26501 9.99782 3.99979C9.99876 3.86952 9.97378 3.74037 9.92436 3.61984C9.87494 3.4993 9.80205 3.3898 9.70994 3.29768C9.61782 3.20556 9.50831 3.13268 9.38778 3.08325C9.26725 3.03383 9.13809 3.00886 9.00783 3.00979C8.87716 3.00913 8.74764 3.03422 8.62667 3.08362C8.5057 3.13301 8.39565 3.20575 8.30279 3.29768C8.11525 3.48335 8.00915 3.7359 8.00783 3.99979C8.0065 4.26368 8.11006 4.51729 8.29572 4.70483C8.48138 4.89236 8.73393 4.99846 8.99782 4.99979Z" fill="#3764AC"/>
<path d="M15 5C15.5523 5 16 4.55228 16 4C16 3.44772 15.5523 3 15 3C14.4477 3 14 3.44772 14 4C14 4.55228 14.4477 5 15 5Z" fill="#3764AC"/>
<path d="M16 8H8C7.20459 7.99921 6.44199 7.68288 5.87956 7.12044C5.31712 6.55801 5.00079 5.79541 5 5V3C5.00079 2.20459 5.31712 1.44199 5.87956 0.879557C6.44199 0.31712 7.20459 0.000794215 8 0L16 0C16.7954 0.000794215 17.558 0.31712 18.1204 0.879557C18.6829 1.44199 18.9992 2.20459 19 3V5C18.9992 5.79541 18.6829 6.55801 18.1204 7.12044C17.558 7.68288 16.7954 7.99921 16 8ZM8 2C7.73486 2.00026 7.48066 2.10571 7.29319 2.29319C7.10571 2.48066 7.00026 2.73486 7 3V5C7.00026 5.26514 7.10571 5.51934 7.29319 5.70681C7.48066 5.89429 7.73486 5.99974 8 6H16C16.2651 5.99974 16.5193 5.89429 16.7068 5.70681C16.8943 5.51934 16.9997 5.26514 17 5V3C16.9997 2.73486 16.8943 2.48066 16.7068 2.29319C16.5193 2.10571 16.2651 2.00026 16 2H8Z" fill="#3764AC"/>
</svg>
