<svg width="20" height="21" viewBox="0 0 20 21" fill="none" xmlns="http://www.w3.org/2000/svg">
<path d="M8.74832 14.6668C8.63865 14.6674 8.52993 14.6464 8.4284 14.605C8.32687 14.5635 8.23452 14.5024 8.15665 14.4251C8.07855 14.3477 8.01655 14.2555 7.97425 14.154C7.93194 14.0524 7.91016 13.9435 7.91016 13.8335C7.91016 13.7235 7.93194 13.6145 7.97425 13.513C8.01655 13.4114 8.07855 13.3193 8.15665 13.2418L10.915 10.5001L8.26499 7.74181C8.10978 7.58568 8.02266 7.37447 8.02266 7.15431C8.02266 6.93416 8.10978 6.72295 8.26499 6.56681C8.34246 6.4887 8.43462 6.42671 8.53617 6.3844C8.63772 6.34209 8.74665 6.32031 8.85666 6.32031C8.96666 6.32031 9.07559 6.34209 9.17714 6.3844C9.27869 6.42671 9.37085 6.4887 9.44832 6.56681L12.665 9.90014C12.8177 10.0559 12.9032 10.2653 12.9032 10.4835C12.9032 10.7016 12.8177 10.911 12.665 11.0668L9.33165 14.4001C9.25686 14.4809 9.16679 14.5461 9.06667 14.5918C8.96655 14.6376 8.85835 14.6631 8.74832 14.6668Z" fill="#0C3176"/>
</svg>
