<svg width="20" height="20" viewBox="0 0 20 20" fill="none" xmlns="http://www.w3.org/2000/svg">
<path d="M15.8359 18.3333H4.16927C3.94826 18.3333 3.7363 18.2455 3.58002 18.0892C3.42374 17.9329 3.33594 17.721 3.33594 17.5V9.46413C3.34877 9.2599 3.43557 9.06733 3.5801 8.92246L9.41344 3.08913C9.49083 3.01165 9.58274 2.95019 9.6839 2.90825C9.78507 2.86631 9.89351 2.84473 10.003 2.84473C10.1125 2.84473 10.221 2.86631 10.3221 2.90825C10.4233 2.95019 10.5152 3.01165 10.5926 3.08913L16.4259 8.92246C16.5034 8.99973 16.5648 9.09158 16.6065 9.1927C16.6483 9.29383 16.6696 9.40222 16.6693 9.51163V17.5C16.6693 17.721 16.5815 17.9329 16.4252 18.0892C16.2689 18.2455 16.057 18.3333 15.8359 18.3333ZM9.48427 14.5625C9.6676 14.7125 9.8451 14.8591 10.0026 15C10.1693 14.8525 10.3559 14.7 10.5543 14.5383L10.6018 14.4991C11.5734 13.7066 12.7834 12.7208 12.7834 11.4991C12.7834 11.2996 12.7435 11.1021 12.6661 10.9182C12.5888 10.7342 12.4755 10.5676 12.333 10.428C12.1904 10.2884 12.0214 10.1786 11.8359 10.1051C11.6504 10.0316 11.4521 9.99586 11.2526 9.99997C11.0169 9.99933 10.7836 10.0485 10.5682 10.1443C10.3528 10.2401 10.16 10.3803 10.0026 10.5558C9.8452 10.3803 9.65246 10.24 9.43703 10.1442C9.22161 10.0484 8.98837 9.99928 8.7526 9.99997C8.55318 9.99609 8.35499 10.032 8.16962 10.1057C7.98425 10.1793 7.81543 10.2892 7.67304 10.4289C7.53065 10.5685 7.41754 10.7352 7.34034 10.9191C7.26314 11.103 7.2234 11.3005 7.22344 11.5C7.22344 12.7175 8.42344 13.6966 9.3901 14.4833H9.38927H9.39344L9.40844 14.4958H9.4126L9.41927 14.5116L9.4626 14.5475L9.47344 14.5558H9.47844L9.48427 14.5625Z" fill="white"/>
</svg>
