<svg width="24" height="24" viewBox="0 0 24 24" fill="none" xmlns="http://www.w3.org/2000/svg">
<path d="M9.75 6.5C9.52019 6.5 9.29262 6.45474 9.0803 6.36679C8.86798 6.27884 8.67507 6.14994 8.51256 5.98744C8.35006 5.82493 8.22116 5.63202 8.13321 5.4197C8.04527 5.20738 8 4.97981 8 4.75C8 4.52019 8.04527 4.29262 8.13321 4.0803C8.22116 3.86798 8.35006 3.67507 8.51256 3.51256C8.67507 3.35006 8.86798 3.22116 9.0803 3.13321C9.29262 3.04527 9.52019 3 9.75 3C10.2141 3 10.6592 3.18437 10.9874 3.51256C11.3156 3.84075 11.5 4.28587 11.5 4.75C11.5 5.21413 11.3156 5.65925 10.9874 5.98744C10.6592 6.31563 10.2141 6.5 9.75 6.5Z" fill="#3764AC"/>
<path fill-rule="evenodd" clip-rule="evenodd" d="M15.9998 8C16.1818 8 16.3528 8.0485 16.4998 8.134V7.5H15.9998C15.602 7.5 15.2204 7.34196 14.9391 7.06066C14.6578 6.77936 14.4998 6.39782 14.4998 6V3H15.4998V6C15.4998 6.13261 15.5525 6.25979 15.6462 6.35355C15.74 6.44732 15.8672 6.5 15.9998 6.5H16.4998V3H17.4998V6.5H17.9998C18.1324 6.5 18.2596 6.44732 18.3533 6.35355C18.4471 6.25979 18.4998 6.13261 18.4998 6V3H19.4998V6C19.4998 6.39782 19.3417 6.77936 19.0604 7.06066C18.7791 7.34196 18.3976 7.5 17.9998 7.5H17.4998V20.5C17.4998 20.6326 17.4471 20.7598 17.3533 20.8536C17.2596 20.9473 17.1324 21 16.9998 21C16.8672 21 16.74 20.9473 16.6462 20.8536C16.5525 20.7598 16.4998 20.6326 16.4998 20.5V9.866C16.3479 9.954 16.1754 10.0002 15.9998 10H12.4998V20C12.4998 20.2652 12.3944 20.5196 12.2069 20.7071C12.0194 20.8946 11.765 21 11.4998 21C11.2346 21 10.9802 20.8946 10.7927 20.7071C10.6051 20.5196 10.4998 20.2652 10.4998 20V15.5H8.99979V20C8.99979 20.2652 8.89443 20.5196 8.70689 20.7071C8.51936 20.8946 8.265 21 7.99979 21C7.73457 21 7.48022 20.8946 7.29268 20.7071C7.10514 20.5196 6.99979 20.2652 6.99979 20V13.9585C6.25975 13.8311 5.59436 13.4309 5.13496 12.837C4.67556 12.243 4.45554 11.4983 4.51833 10.75C4.58112 10.0018 4.92216 9.3042 5.47413 8.79508C6.02609 8.28595 6.74887 8.00226 7.49979 8H15.9998ZM5.99979 11C5.99979 10.7348 6.10514 10.4804 6.29268 10.2929C6.48022 10.1054 6.73457 10 6.99979 10V12C6.73457 12 6.48022 11.8946 6.29268 11.7071C6.10514 11.5196 5.99979 11.2652 5.99979 11Z" fill="#3764AC"/>
</svg>
